<svg xmlns="http://www.w3.org/2000/svg" viewBox="0 0 720 300" width="720" height="300">
  <defs>
    <linearGradient id="foil" x1="0" y1="0" x2="1" y2="1">
      <stop offset="0%" stop-color="#c69a4a" stop-opacity="0.9"/>
      <stop offset="50%" stop-color="#f1e7d2" stop-opacity="0.4"/>
      <stop offset="100%" stop-color="#c69a4a" stop-opacity="0.9"/>
    </linearGradient>
    <clipPath id="ticket">
      <rect x="14" y="14" width="692" height="272" rx="6" ry="6"/>
    </clipPath>
  </defs>

  <!-- Outer canvas -->
  <rect width="720" height="300" fill="#1a1a1a"/>

  <!-- Ticket body -->
  <g clip-path="url(#ticket)">
    <rect x="14" y="14" width="692" height="272" fill="#f1e7d2"/>
    <circle cx="341.2" cy="76.7" r="0.4" fill="#e6d7b5" opacity="0.35"/><circle cx="401.3" cy="23.0" r="0.4" fill="#e6d7b5" opacity="0.35"/><circle cx="360.5" cy="2.0" r="0.8" fill="#e6d7b5" opacity="0.35"/><circle cx="688.2" cy="235.0" r="0.4" fill="#e6d7b5" opacity="0.35"/><circle cx="462.1" cy="280.6" r="0.4" fill="#e6d7b5" opacity="0.35"/><circle cx="290.5" cy="120.9" r="0.4" fill="#e6d7b5" opacity="0.35"/><circle cx="149.1" cy="45.1" r="0.4" fill="#e6d7b5" opacity="0.35"/><circle cx="427.5" cy="240.4" r="0.4" fill="#e6d7b5" opacity="0.35"/><circle cx="506.6" cy="279.6" r="0.4" fill="#e6d7b5" opacity="0.35"/><circle cx="686.9" cy="36.6" r="0.4" fill="#e6d7b5" opacity="0.35"/><circle cx="353.6" cy="262.8" r="0.4" fill="#e6d7b5" opacity="0.35"/><circle cx="459.6" cy="268.8" r="0.8" fill="#e6d7b5" opacity="0.35"/><circle cx="265.6" cy="225.3" r="0.4" fill="#e6d7b5" opacity="0.35"/><circle cx="222.8" cy="32.5" r="0.4" fill="#e6d7b5" opacity="0.35"/><circle cx="118.8" cy="20.5" r="0.4" fill="#e6d7b5" opacity="0.35"/><circle cx="408.6" cy="31.7" r="0.4" fill="#e6d7b5" opacity="0.35"/><circle cx="266.7" cy="107.3" r="0.4" fill="#e6d7b5" opacity="0.35"/><circle cx="314.9" cy="219.8" r="0.4" fill="#e6d7b5" opacity="0.35"/><circle cx="399.7" cy="124.7" r="0.4" fill="#e6d7b5" opacity="0.35"/><circle cx="132.0" cy="15.7" r="0.8" fill="#e6d7b5" opacity="0.35"/><circle cx="401.8" cy="187.4" r="0.4" fill="#e6d7b5" opacity="0.35"/><circle cx="61.9" cy="8.1" r="0.4" fill="#e6d7b5" opacity="0.35"/><circle cx="337.8" cy="128.1" r="0.4" fill="#e6d7b5" opacity="0.35"/><circle cx="113.7" cy="257.5" r="0.4" fill="#e6d7b5" opacity="0.35"/><circle cx="248.0" cy="79.2" r="0.4" fill="#e6d7b5" opacity="0.35"/><circle cx="301.6" cy="220.2" r="0.8" fill="#e6d7b5" opacity="0.35"/><circle cx="530.5" cy="273.0" r="0.4" fill="#e6d7b5" opacity="0.35"/><circle cx="345.8" cy="135.5" r="0.4" fill="#e6d7b5" opacity="0.35"/><circle cx="174.9" cy="289.2" r="0.8" fill="#e6d7b5" opacity="0.35"/><circle cx="540.4" cy="205.5" r="0.4" fill="#e6d7b5" opacity="0.35"/><circle cx="232.3" cy="108.6" r="0.4" fill="#e6d7b5" opacity="0.35"/><circle cx="106.8" cy="57.8" r="0.4" fill="#e6d7b5" opacity="0.35"/><circle cx="157.4" cy="250.8" r="0.4" fill="#e6d7b5" opacity="0.35"/><circle cx="246.7" cy="197.1" r="0.4" fill="#e6d7b5" opacity="0.35"/><circle cx="158.5" cy="255.7" r="0.4" fill="#e6d7b5" opacity="0.35"/><circle cx="247.4" cy="32.1" r="0.4" fill="#e6d7b5" opacity="0.35"/><circle cx="98.1" cy="128.6" r="0.4" fill="#e6d7b5" opacity="0.35"/><circle cx="518.4" cy="25.9" r="0.8" fill="#e6d7b5" opacity="0.35"/><circle cx="167.1" cy="202.8" r="0.4" fill="#e6d7b5" opacity="0.35"/><circle cx="72.7" cy="77.4" r="0.4" fill="#e6d7b5" opacity="0.35"/><circle cx="595.1" cy="160.2" r="0.8" fill="#e6d7b5" opacity="0.35"/><circle cx="680.9" cy="61.2" r="0.4" fill="#e6d7b5" opacity="0.35"/><circle cx="545.0" cy="54.7" r="0.4" fill="#e6d7b5" opacity="0.35"/><circle cx="63.6" cy="52.4" r="0.4" fill="#e6d7b5" opacity="0.35"/><circle cx="672.4" cy="143.4" r="0.4" fill="#e6d7b5" opacity="0.35"/><circle cx="51.7" cy="224.8" r="0.4" fill="#e6d7b5" opacity="0.35"/><circle cx="341.0" cy="156.4" r="0.4" fill="#e6d7b5" opacity="0.35"/><circle cx="442.0" cy="295.9" r="0.4" fill="#e6d7b5" opacity="0.35"/><circle cx="52.7" cy="74.1" r="0.4" fill="#e6d7b5" opacity="0.35"/><circle cx="703.3" cy="125.7" r="0.4" fill="#e6d7b5" opacity="0.35"/><circle cx="230.8" cy="178.6" r="0.8" fill="#e6d7b5" opacity="0.35"/><circle cx="565.6" cy="15.5" r="0.4" fill="#e6d7b5" opacity="0.35"/><circle cx="713.7" cy="62.4" r="0.4" fill="#e6d7b5" opacity="0.35"/><circle cx="593.7" cy="111.6" r="0.4" fill="#e6d7b5" opacity="0.35"/><circle cx="525.7" cy="181.3" r="0.4" fill="#e6d7b5" opacity="0.35"/><circle cx="26.2" cy="171.2" r="0.4" fill="#e6d7b5" opacity="0.35"/><circle cx="416.6" cy="178.9" r="0.4" fill="#e6d7b5" opacity="0.35"/><circle cx="377.6" cy="40.0" r="0.4" fill="#e6d7b5" opacity="0.35"/><circle cx="222.4" cy="254.5" r="0.4" fill="#e6d7b5" opacity="0.35"/><circle cx="405.2" cy="164.9" r="0.4" fill="#e6d7b5" opacity="0.35"/><circle cx="398.8" cy="258.7" r="0.4" fill="#e6d7b5" opacity="0.35"/><circle cx="683.4" cy="176.4" r="0.4" fill="#e6d7b5" opacity="0.35"/><circle cx="635.0" cy="33.6" r="0.4" fill="#e6d7b5" opacity="0.35"/><circle cx="112.7" cy="181.8" r="0.4" fill="#e6d7b5" opacity="0.35"/><circle cx="600.2" cy="50.4" r="0.4" fill="#e6d7b5" opacity="0.35"/><circle cx="258.4" cy="126.8" r="0.4" fill="#e6d7b5" opacity="0.35"/><circle cx="47.4" cy="25.2" r="0.4" fill="#e6d7b5" opacity="0.35"/><circle cx="594.1" cy="200.8" r="0.4" fill="#e6d7b5" opacity="0.35"/><circle cx="701.6" cy="15.6" r="0.4" fill="#e6d7b5" opacity="0.35"/><circle cx="473.3" cy="203.8" r="0.4" fill="#e6d7b5" opacity="0.35"/><circle cx="142.2" cy="146.4" r="0.4" fill="#e6d7b5" opacity="0.35"/><circle cx="656.1" cy="42.7" r="0.4" fill="#e6d7b5" opacity="0.35"/><circle cx="570.2" cy="211.6" r="0.4" fill="#e6d7b5" opacity="0.35"/><circle cx="681.1" cy="247.4" r="0.4" fill="#e6d7b5" opacity="0.35"/><circle cx="429.9" cy="136.4" r="0.4" fill="#e6d7b5" opacity="0.35"/><circle cx="159.2" cy="109.4" r="0.4" fill="#e6d7b5" opacity="0.35"/><circle cx="603.0" cy="56.9" r="0.4" fill="#e6d7b5" opacity="0.35"/><circle cx="525.1" cy="141.4" r="0.4" fill="#e6d7b5" opacity="0.35"/><circle cx="264.3" cy="257.2" r="0.4" fill="#e6d7b5" opacity="0.35"/><circle cx="32.2" cy="142.0" r="0.4" fill="#e6d7b5" opacity="0.35"/><circle cx="483.8" cy="260.0" r="0.4" fill="#e6d7b5" opacity="0.35"/><circle cx="63.2" cy="60.4" r="0.4" fill="#e6d7b5" opacity="0.35"/><circle cx="381.5" cy="247.6" r="0.4" fill="#e6d7b5" opacity="0.35"/><circle cx="696.2" cy="208.8" r="0.4" fill="#e6d7b5" opacity="0.35"/><circle cx="182.5" cy="113.8" r="0.4" fill="#e6d7b5" opacity="0.35"/><circle cx="162.4" cy="219.2" r="0.4" fill="#e6d7b5" opacity="0.35"/><circle cx="396.9" cy="104.9" r="0.4" fill="#e6d7b5" opacity="0.35"/><circle cx="591.5" cy="130.3" r="0.4" fill="#e6d7b5" opacity="0.35"/><circle cx="123.9" cy="136.0" r="0.8" fill="#e6d7b5" opacity="0.35"/><circle cx="314.0" cy="26.4" r="0.4" fill="#e6d7b5" opacity="0.35"/><circle cx="248.5" cy="263.8" r="0.4" fill="#e6d7b5" opacity="0.35"/><circle cx="476.3" cy="265.6" r="0.4" fill="#e6d7b5" opacity="0.35"/><circle cx="331.9" cy="249.0" r="0.4" fill="#e6d7b5" opacity="0.35"/><circle cx="203.9" cy="263.7" r="0.4" fill="#e6d7b5" opacity="0.35"/><circle cx="568.2" cy="295.7" r="0.4" fill="#e6d7b5" opacity="0.35"/><circle cx="320.6" cy="5.1" r="0.4" fill="#e6d7b5" opacity="0.35"/><circle cx="279.6" cy="131.1" r="0.4" fill="#e6d7b5" opacity="0.35"/><circle cx="75.2" cy="113.4" r="0.4" fill="#e6d7b5" opacity="0.35"/><circle cx="661.6" cy="128.7" r="0.4" fill="#e6d7b5" opacity="0.35"/><circle cx="79.9" cy="255.5" r="0.4" fill="#e6d7b5" opacity="0.35"/><circle cx="398.0" cy="267.6" r="0.4" fill="#e6d7b5" opacity="0.35"/><circle cx="579.7" cy="276.4" r="0.4" fill="#e6d7b5" opacity="0.35"/><circle cx="312.1" cy="14.7" r="0.4" fill="#e6d7b5" opacity="0.35"/><circle cx="256.0" cy="233.7" r="0.4" fill="#e6d7b5" opacity="0.35"/><circle cx="664.7" cy="31.0" r="0.8" fill="#e6d7b5" opacity="0.35"/><circle cx="219.2" cy="54.9" r="0.4" fill="#e6d7b5" opacity="0.35"/><circle cx="179.3" cy="174.2" r="0.4" fill="#e6d7b5" opacity="0.35"/><circle cx="575.8" cy="212.6" r="0.4" fill="#e6d7b5" opacity="0.35"/><circle cx="49.8" cy="123.2" r="0.4" fill="#e6d7b5" opacity="0.35"/><circle cx="513.0" cy="276.6" r="0.4" fill="#e6d7b5" opacity="0.35"/><circle cx="60.4" cy="213.1" r="0.4" fill="#e6d7b5" opacity="0.35"/><circle cx="528.5" cy="98.4" r="0.4" fill="#e6d7b5" opacity="0.35"/><circle cx="486.8" cy="107.8" r="0.4" fill="#e6d7b5" opacity="0.35"/><circle cx="225.3" cy="214.7" r="0.4" fill="#e6d7b5" opacity="0.35"/><circle cx="58.5" cy="161.5" r="0.4" fill="#e6d7b5" opacity="0.35"/><circle cx="570.3" cy="101.8" r="0.4" fill="#e6d7b5" opacity="0.35"/><circle cx="377.4" cy="198.3" r="0.4" fill="#e6d7b5" opacity="0.35"/><circle cx="52.3" cy="266.3" r="0.4" fill="#e6d7b5" opacity="0.35"/><circle cx="294.0" cy="21.6" r="0.4" fill="#e6d7b5" opacity="0.35"/><circle cx="91.7" cy="241.0" r="0.4" fill="#e6d7b5" opacity="0.35"/><circle cx="424.9" cy="40.7" r="0.4" fill="#e6d7b5" opacity="0.35"/><circle cx="389.5" cy="283.7" r="0.4" fill="#e6d7b5" opacity="0.35"/><circle cx="83.3" cy="29.5" r="0.4" fill="#e6d7b5" opacity="0.35"/><circle cx="694.6" cy="4.7" r="0.8" fill="#e6d7b5" opacity="0.35"/><circle cx="407.0" cy="92.2" r="0.4" fill="#e6d7b5" opacity="0.35"/><circle cx="462.7" cy="140.4" r="0.4" fill="#e6d7b5" opacity="0.35"/><circle cx="381.5" cy="202.8" r="0.4" fill="#e6d7b5" opacity="0.35"/><circle cx="52.5" cy="77.8" r="0.4" fill="#e6d7b5" opacity="0.35"/><circle cx="363.3" cy="141.2" r="0.4" fill="#e6d7b5" opacity="0.35"/><circle cx="408.9" cy="184.5" r="0.4" fill="#e6d7b5" opacity="0.35"/><circle cx="204.5" cy="66.2" r="0.4" fill="#e6d7b5" opacity="0.35"/><circle cx="579.7" cy="45.5" r="0.4" fill="#e6d7b5" opacity="0.35"/><circle cx="328.0" cy="26.5" r="0.4" fill="#e6d7b5" opacity="0.35"/><circle cx="490.4" cy="76.9" r="0.4" fill="#e6d7b5" opacity="0.35"/><circle cx="373.3" cy="209.7" r="0.4" fill="#e6d7b5" opacity="0.35"/><circle cx="241.6" cy="264.4" r="0.4" fill="#e6d7b5" opacity="0.35"/><circle cx="669.2" cy="244.6" r="0.4" fill="#e6d7b5" opacity="0.35"/><circle cx="514.0" cy="28.8" r="0.4" fill="#e6d7b5" opacity="0.35"/><circle cx="136.8" cy="151.5" r="0.4" fill="#e6d7b5" opacity="0.35"/><circle cx="71.5" cy="50.2" r="0.8" fill="#e6d7b5" opacity="0.35"/><circle cx="364.2" cy="218.4" r="0.4" fill="#e6d7b5" opacity="0.35"/><circle cx="584.7" cy="146.2" r="0.4" fill="#e6d7b5" opacity="0.35"/><circle cx="259.8" cy="293.1" r="0.4" fill="#e6d7b5" opacity="0.35"/><circle cx="402.5" cy="178.7" r="0.4" fill="#e6d7b5" opacity="0.35"/><circle cx="553.8" cy="159.7" r="0.4" fill="#e6d7b5" opacity="0.35"/><circle cx="130.9" cy="22.9" r="0.4" fill="#e6d7b5" opacity="0.35"/><circle cx="665.8" cy="97.9" r="0.4" fill="#e6d7b5" opacity="0.35"/><circle cx="402.0" cy="240.7" r="0.4" fill="#e6d7b5" opacity="0.35"/><circle cx="56.4" cy="227.0" r="0.4" fill="#e6d7b5" opacity="0.35"/><circle cx="203.4" cy="89.0" r="0.4" fill="#e6d7b5" opacity="0.35"/><circle cx="518.2" cy="87.0" r="0.4" fill="#e6d7b5" opacity="0.35"/><circle cx="574.3" cy="133.8" r="0.4" fill="#e6d7b5" opacity="0.35"/><circle cx="469.2" cy="163.1" r="0.4" fill="#e6d7b5" opacity="0.35"/><circle cx="617.4" cy="159.7" r="0.4" fill="#e6d7b5" opacity="0.35"/><circle cx="361.1" cy="94.4" r="0.4" fill="#e6d7b5" opacity="0.35"/><circle cx="24.5" cy="64.7" r="0.4" fill="#e6d7b5" opacity="0.35"/><circle cx="231.8" cy="205.6" r="0.4" fill="#e6d7b5" opacity="0.35"/><circle cx="297.5" cy="166.4" r="0.4" fill="#e6d7b5" opacity="0.35"/><circle cx="668.4" cy="256.3" r="0.4" fill="#e6d7b5" opacity="0.35"/><circle cx="4.5" cy="265.8" r="0.8" fill="#e6d7b5" opacity="0.35"/><circle cx="205.3" cy="50.8" r="0.4" fill="#e6d7b5" opacity="0.35"/><circle cx="444.6" cy="244.0" r="0.4" fill="#e6d7b5" opacity="0.35"/><circle cx="302.2" cy="232.8" r="0.4" fill="#e6d7b5" opacity="0.35"/><circle cx="502.9" cy="207.9" r="0.4" fill="#e6d7b5" opacity="0.35"/><circle cx="32.7" cy="264.9" r="0.4" fill="#e6d7b5" opacity="0.35"/><circle cx="251.0" cy="250.4" r="0.4" fill="#e6d7b5" opacity="0.35"/><circle cx="538.1" cy="26.4" r="0.4" fill="#e6d7b5" opacity="0.35"/><circle cx="626.5" cy="100.1" r="0.4" fill="#e6d7b5" opacity="0.35"/><circle cx="461.8" cy="293.2" r="0.4" fill="#e6d7b5" opacity="0.35"/><circle cx="90.8" cy="239.0" r="0.4" fill="#e6d7b5" opacity="0.35"/><circle cx="718.8" cy="21.8" r="0.4" fill="#e6d7b5" opacity="0.35"/><circle cx="306.9" cy="149.0" r="0.4" fill="#e6d7b5" opacity="0.35"/><circle cx="23.6" cy="274.0" r="0.4" fill="#e6d7b5" opacity="0.35"/><circle cx="422.1" cy="196.7" r="0.4" fill="#e6d7b5" opacity="0.35"/><circle cx="343.7" cy="215.9" r="0.4" fill="#e6d7b5" opacity="0.35"/><circle cx="375.8" cy="3.8" r="0.4" fill="#e6d7b5" opacity="0.35"/><circle cx="578.8" cy="64.8" r="0.4" fill="#e6d7b5" opacity="0.35"/><circle cx="400.7" cy="191.9" r="0.4" fill="#e6d7b5" opacity="0.35"/><circle cx="505.1" cy="4.7" r="0.4" fill="#e6d7b5" opacity="0.35"/><circle cx="54.7" cy="74.2" r="0.4" fill="#e6d7b5" opacity="0.35"/><circle cx="486.9" cy="52.3" r="0.4" fill="#e6d7b5" opacity="0.35"/><circle cx="458.8" cy="65.4" r="0.4" fill="#e6d7b5" opacity="0.35"/><circle cx="109.2" cy="204.9" r="0.4" fill="#e6d7b5" opacity="0.35"/><circle cx="678.3" cy="164.3" r="0.8" fill="#e6d7b5" opacity="0.35"/><circle cx="230.1" cy="230.3" r="0.4" fill="#e6d7b5" opacity="0.35"/><circle cx="642.4" cy="33.1" r="0.4" fill="#e6d7b5" opacity="0.35"/><circle cx="429.0" cy="119.6" r="0.4" fill="#e6d7b5" opacity="0.35"/><circle cx="479.3" cy="75.2" r="0.4" fill="#e6d7b5" opacity="0.35"/><circle cx="195.3" cy="109.9" r="0.4" fill="#e6d7b5" opacity="0.35"/><circle cx="657.2" cy="29.1" r="0.4" fill="#e6d7b5" opacity="0.35"/><circle cx="160.5" cy="69.2" r="0.4" fill="#e6d7b5" opacity="0.35"/><circle cx="407.8" cy="277.6" r="0.4" fill="#e6d7b5" opacity="0.35"/><circle cx="83.6" cy="244.1" r="0.4" fill="#e6d7b5" opacity="0.35"/><circle cx="587.5" cy="221.7" r="0.4" fill="#e6d7b5" opacity="0.35"/><circle cx="147.1" cy="36.2" r="0.4" fill="#e6d7b5" opacity="0.35"/><circle cx="580.6" cy="118.8" r="0.4" fill="#e6d7b5" opacity="0.35"/><circle cx="419.7" cy="91.4" r="0.4" fill="#e6d7b5" opacity="0.35"/><circle cx="67.0" cy="95.5" r="0.4" fill="#e6d7b5" opacity="0.35"/><circle cx="353.2" cy="83.1" r="0.4" fill="#e6d7b5" opacity="0.35"/><circle cx="132.7" cy="89.7" r="0.4" fill="#e6d7b5" opacity="0.35"/><circle cx="116.3" cy="252.4" r="0.4" fill="#e6d7b5" opacity="0.35"/><circle cx="6.0" cy="180.0" r="0.4" fill="#e6d7b5" opacity="0.35"/><circle cx="684.1" cy="96.1" r="0.4" fill="#e6d7b5" opacity="0.35"/><circle cx="578.9" cy="171.4" r="0.4" fill="#e6d7b5" opacity="0.35"/><circle cx="637.3" cy="179.5" r="0.4" fill="#e6d7b5" opacity="0.35"/><circle cx="139.5" cy="147.4" r="0.4" fill="#e6d7b5" opacity="0.35"/><circle cx="387.8" cy="252.7" r="0.4" fill="#e6d7b5" opacity="0.35"/><circle cx="452.2" cy="144.6" r="0.4" fill="#e6d7b5" opacity="0.35"/><circle cx="506.7" cy="284.5" r="0.4" fill="#e6d7b5" opacity="0.35"/><circle cx="210.0" cy="236.7" r="0.4" fill="#e6d7b5" opacity="0.35"/><circle cx="135.3" cy="2.0" r="0.4" fill="#e6d7b5" opacity="0.35"/><circle cx="362.4" cy="265.5" r="0.4" fill="#e6d7b5" opacity="0.35"/><circle cx="12.2" cy="45.8" r="0.4" fill="#e6d7b5" opacity="0.35"/><circle cx="44.4" cy="208.3" r="0.8" fill="#e6d7b5" opacity="0.35"/><circle cx="63.5" cy="285.4" r="0.4" fill="#e6d7b5" opacity="0.35"/><circle cx="148.7" cy="109.1" r="0.4" fill="#e6d7b5" opacity="0.35"/><circle cx="285.4" cy="89.1" r="0.4" fill="#e6d7b5" opacity="0.35"/><circle cx="286.2" cy="26.8" r="0.4" fill="#e6d7b5" opacity="0.35"/><circle cx="394.5" cy="89.9" r="0.4" fill="#e6d7b5" opacity="0.35"/><circle cx="80.9" cy="227.4" r="0.4" fill="#e6d7b5" opacity="0.35"/>
    
    <g opacity="0.06">
      <g transform="rotate(-22 360 150)">
        <rect x="-100" y="-50" width="40" height="400" fill="#3a2a18"/><rect x="0" y="-50" width="40" height="400" fill="#3a2a18"/><rect x="100" y="-50" width="40" height="400" fill="#3a2a18"/><rect x="200" y="-50" width="40" height="400" fill="#3a2a18"/><rect x="300" y="-50" width="40" height="400" fill="#3a2a18"/><rect x="400" y="-50" width="40" height="400" fill="#3a2a18"/><rect x="500" y="-50" width="40" height="400" fill="#3a2a18"/><rect x="600" y="-50" width="40" height="400" fill="#3a2a18"/><rect x="700" y="-50" width="40" height="400" fill="#3a2a18"/>
      </g>
    </g>
  

    <!-- Double-line top border -->
    <line x1="34" y1="32" x2="686" y2="32" stroke="#3a2a18" stroke-width="1.2"/>
    <line x1="34" y1="36" x2="686" y2="36" stroke="#3a2a18" stroke-width="0.5"/>
    <line x1="34" y1="264" x2="686" y2="264" stroke="#3a2a18" stroke-width="0.5"/>
    <line x1="34" y1="268" x2="686" y2="268" stroke="#3a2a18" stroke-width="1.2"/>

    <!-- Header label -->
    <text x="46" y="62" font-family="Georgia, 'Times New Roman', serif" font-size="11" letter-spacing="3" fill="#3a2a18">AXIOM · BASE · ERC-8257</text>

    <!-- Main title -->
    <text x="46" y="124" font-family="Georgia, 'Times New Roman', serif" font-size="46" font-weight="700" fill="#3a2a18">AXIOM</text>
    <text x="46" y="164" font-family="Georgia, 'Times New Roman', serif" font-size="34" font-style="italic" fill="#8a5a2b">tool pass</text>

    <!-- Tagline -->
    <text x="46" y="196" font-family="Georgia, serif" font-size="10" letter-spacing="4" fill="#3a2a18">ADMIT ONE · BYPASS x402 · LIFETIME</text>

    <!-- Serial -->
    <text x="46" y="248" font-family="Courier, monospace" font-size="11" letter-spacing="2" fill="#3a2a18">№ 0002 / 1000</text>

    <!-- Sigil(s) — right side always, plus mirrored left side if Twin -->
    
    <g transform="rotate(115 516 226)">
      <circle cx="516" cy="226" r="32" fill="none" stroke="#3a2a18" stroke-width="1.5"/>
      <circle cx="516" cy="226" r="29.44" fill="none" stroke="#3a2a18" stroke-width="0.4" stroke-dasharray="2 2"/>
      
      <line x1="516" y1="201.04" x2="516" y2="250.96" stroke="#3a2a18" stroke-width="1"/>
      <line x1="491.04" y1="226" x2="540.96" y2="226" stroke="#3a2a18" stroke-width="1"/>
      <line x1="498.528" y1="208.528" x2="533.472" y2="243.472" stroke="#3a2a18" stroke-width="0.5"/>
      <line x1="533.472" y1="208.528" x2="498.528" y2="243.472" stroke="#3a2a18" stroke-width="0.5"/>
      <circle cx="516" cy="226" r="7.04" fill="#8a5a2b"/>
    
    </g>
  
    

    <!-- Stub background tint -->
    <rect x="576" y="14" width="130" height="272" fill="#e6d7b5" opacity="0.45"/>

    <!-- Foil strip on stub -->
    <rect x="588" y="34" width="106" height="6" fill="url(#foil)"/>

    <!-- Stub rotated text -->
    <g transform="translate(641, 150) rotate(-90)">
      <text text-anchor="middle" font-family="Georgia, serif" font-size="20" font-weight="700" letter-spacing="6" fill="#3a2a18">AXIOM TOOL PASS</text>
      <text y="22" text-anchor="middle" font-family="Courier, monospace" font-size="9" letter-spacing="3" fill="#3a2a18">№ 0002 / 1000</text>
    </g>
  </g>

  <!-- Perforation -->
  <circle cx="576" cy="26" r="2" fill="#f1e7d2" stroke="#e6d7b5" stroke-width="0.5"/><circle cx="576" cy="38" r="2" fill="#f1e7d2" stroke="#e6d7b5" stroke-width="0.5"/><circle cx="576" cy="50" r="2" fill="#f1e7d2" stroke="#e6d7b5" stroke-width="0.5"/><circle cx="576" cy="62" r="2" fill="#f1e7d2" stroke="#e6d7b5" stroke-width="0.5"/><circle cx="576" cy="74" r="2" fill="#f1e7d2" stroke="#e6d7b5" stroke-width="0.5"/><circle cx="576" cy="86" r="2" fill="#f1e7d2" stroke="#e6d7b5" stroke-width="0.5"/><circle cx="576" cy="98" r="2" fill="#f1e7d2" stroke="#e6d7b5" stroke-width="0.5"/><circle cx="576" cy="110" r="2" fill="#f1e7d2" stroke="#e6d7b5" stroke-width="0.5"/><circle cx="576" cy="122" r="2" fill="#f1e7d2" stroke="#e6d7b5" stroke-width="0.5"/><circle cx="576" cy="134" r="2" fill="#f1e7d2" stroke="#e6d7b5" stroke-width="0.5"/><circle cx="576" cy="146" r="2" fill="#f1e7d2" stroke="#e6d7b5" stroke-width="0.5"/><circle cx="576" cy="158" r="2" fill="#f1e7d2" stroke="#e6d7b5" stroke-width="0.5"/><circle cx="576" cy="170" r="2" fill="#f1e7d2" stroke="#e6d7b5" stroke-width="0.5"/><circle cx="576" cy="182" r="2" fill="#f1e7d2" stroke="#e6d7b5" stroke-width="0.5"/><circle cx="576" cy="194" r="2" fill="#f1e7d2" stroke="#e6d7b5" stroke-width="0.5"/><circle cx="576" cy="206" r="2" fill="#f1e7d2" stroke="#e6d7b5" stroke-width="0.5"/><circle cx="576" cy="218" r="2" fill="#f1e7d2" stroke="#e6d7b5" stroke-width="0.5"/><circle cx="576" cy="230" r="2" fill="#f1e7d2" stroke="#e6d7b5" stroke-width="0.5"/><circle cx="576" cy="242" r="2" fill="#f1e7d2" stroke="#e6d7b5" stroke-width="0.5"/><circle cx="576" cy="254" r="2" fill="#f1e7d2" stroke="#e6d7b5" stroke-width="0.5"/><circle cx="576" cy="266" r="2" fill="#f1e7d2" stroke="#e6d7b5" stroke-width="0.5"/><circle cx="576" cy="278" r="2" fill="#f1e7d2" stroke="#e6d7b5" stroke-width="0.5"/>

  <!-- Outer ticket outline -->
  <rect x="14" y="14" width="692" height="272" rx="6" ry="6" fill="none" stroke="#3a2a18" stroke-width="1" opacity="0.4"/>
</svg>