<svg xmlns="http://www.w3.org/2000/svg" viewBox="0 0 720 300" width="720" height="300">
  <defs>
    <linearGradient id="foil" x1="0" y1="0" x2="1" y2="1">
      <stop offset="0%" stop-color="#fff1b8" stop-opacity="0.9"/>
      <stop offset="50%" stop-color="#0d0d0d" stop-opacity="0.4"/>
      <stop offset="100%" stop-color="#fff1b8" stop-opacity="0.9"/>
    </linearGradient>
    <clipPath id="ticket">
      <rect x="14" y="14" width="692" height="272" rx="6" ry="6"/>
    </clipPath>
  </defs>

  <!-- Outer canvas -->
  <rect width="720" height="300" fill="#1a1a1a"/>

  <!-- Ticket body -->
  <g clip-path="url(#ticket)">
    <rect x="14" y="14" width="692" height="272" fill="#0d0d0d"/>
    <circle cx="287.1" cy="232.1" r="0.4" fill="#1c1c1c" opacity="0.35"/><circle cx="575.4" cy="265.3" r="0.4" fill="#1c1c1c" opacity="0.35"/><circle cx="138.6" cy="106.7" r="0.4" fill="#1c1c1c" opacity="0.35"/><circle cx="349.8" cy="87.9" r="0.4" fill="#1c1c1c" opacity="0.35"/><circle cx="247.4" cy="80.1" r="0.4" fill="#1c1c1c" opacity="0.35"/><circle cx="542.8" cy="241.9" r="0.8" fill="#1c1c1c" opacity="0.35"/><circle cx="78.7" cy="170.2" r="0.4" fill="#1c1c1c" opacity="0.35"/><circle cx="497.1" cy="88.8" r="0.4" fill="#1c1c1c" opacity="0.35"/><circle cx="496.6" cy="41.1" r="0.4" fill="#1c1c1c" opacity="0.35"/><circle cx="244.7" cy="261.2" r="0.4" fill="#1c1c1c" opacity="0.35"/><circle cx="655.7" cy="159.6" r="0.4" fill="#1c1c1c" opacity="0.35"/><circle cx="270.4" cy="104.5" r="0.4" fill="#1c1c1c" opacity="0.35"/><circle cx="654.4" cy="193.9" r="0.4" fill="#1c1c1c" opacity="0.35"/><circle cx="176.7" cy="236.4" r="0.4" fill="#1c1c1c" opacity="0.35"/><circle cx="109.7" cy="203.2" r="0.4" fill="#1c1c1c" opacity="0.35"/><circle cx="412.5" cy="225.5" r="0.4" fill="#1c1c1c" opacity="0.35"/><circle cx="51.6" cy="124.6" r="0.4" fill="#1c1c1c" opacity="0.35"/><circle cx="453.5" cy="27.1" r="0.4" fill="#1c1c1c" opacity="0.35"/><circle cx="399.1" cy="284.3" r="0.4" fill="#1c1c1c" opacity="0.35"/><circle cx="277.8" cy="55.5" r="0.8" fill="#1c1c1c" opacity="0.35"/><circle cx="122.7" cy="116.5" r="0.4" fill="#1c1c1c" opacity="0.35"/><circle cx="413.1" cy="94.6" r="0.4" fill="#1c1c1c" opacity="0.35"/><circle cx="329.0" cy="111.2" r="0.4" fill="#1c1c1c" opacity="0.35"/><circle cx="80.5" cy="133.8" r="0.4" fill="#1c1c1c" opacity="0.35"/><circle cx="502.9" cy="211.3" r="0.4" fill="#1c1c1c" opacity="0.35"/><circle cx="64.1" cy="239.3" r="0.4" fill="#1c1c1c" opacity="0.35"/><circle cx="6.2" cy="77.0" r="0.4" fill="#1c1c1c" opacity="0.35"/><circle cx="610.5" cy="23.6" r="0.4" fill="#1c1c1c" opacity="0.35"/><circle cx="140.0" cy="127.4" r="0.4" fill="#1c1c1c" opacity="0.35"/><circle cx="237.7" cy="276.9" r="0.4" fill="#1c1c1c" opacity="0.35"/><circle cx="248.2" cy="61.8" r="0.4" fill="#1c1c1c" opacity="0.35"/><circle cx="443.7" cy="120.3" r="0.4" fill="#1c1c1c" opacity="0.35"/><circle cx="514.3" cy="145.0" r="0.8" fill="#1c1c1c" opacity="0.35"/><circle cx="656.9" cy="230.1" r="0.4" fill="#1c1c1c" opacity="0.35"/><circle cx="37.6" cy="27.2" r="0.4" fill="#1c1c1c" opacity="0.35"/><circle cx="279.9" cy="85.2" r="0.4" fill="#1c1c1c" opacity="0.35"/><circle cx="145.8" cy="225.2" r="0.4" fill="#1c1c1c" opacity="0.35"/><circle cx="62.9" cy="88.7" r="0.4" fill="#1c1c1c" opacity="0.35"/><circle cx="612.6" cy="154.8" r="0.4" fill="#1c1c1c" opacity="0.35"/><circle cx="430.0" cy="52.6" r="0.4" fill="#1c1c1c" opacity="0.35"/><circle cx="457.3" cy="6.9" r="0.4" fill="#1c1c1c" opacity="0.35"/><circle cx="641.7" cy="36.6" r="0.4" fill="#1c1c1c" opacity="0.35"/><circle cx="151.5" cy="231.9" r="0.4" fill="#1c1c1c" opacity="0.35"/><circle cx="425.6" cy="25.8" r="0.4" fill="#1c1c1c" opacity="0.35"/><circle cx="314.2" cy="189.1" r="0.4" fill="#1c1c1c" opacity="0.35"/><circle cx="143.6" cy="118.7" r="0.4" fill="#1c1c1c" opacity="0.35"/><circle cx="716.7" cy="29.2" r="0.4" fill="#1c1c1c" opacity="0.35"/><circle cx="551.7" cy="22.2" r="0.4" fill="#1c1c1c" opacity="0.35"/><circle cx="684.5" cy="184.1" r="0.4" fill="#1c1c1c" opacity="0.35"/><circle cx="346.5" cy="50.6" r="0.4" fill="#1c1c1c" opacity="0.35"/><circle cx="407.7" cy="179.6" r="0.4" fill="#1c1c1c" opacity="0.35"/><circle cx="63.2" cy="182.4" r="0.8" fill="#1c1c1c" opacity="0.35"/><circle cx="497.9" cy="247.1" r="0.4" fill="#1c1c1c" opacity="0.35"/><circle cx="450.4" cy="102.6" r="0.4" fill="#1c1c1c" opacity="0.35"/><circle cx="632.8" cy="183.1" r="0.4" fill="#1c1c1c" opacity="0.35"/><circle cx="301.5" cy="269.6" r="0.4" fill="#1c1c1c" opacity="0.35"/><circle cx="37.2" cy="205.8" r="0.4" fill="#1c1c1c" opacity="0.35"/><circle cx="286.9" cy="115.6" r="0.4" fill="#1c1c1c" opacity="0.35"/><circle cx="320.8" cy="30.9" r="0.4" fill="#1c1c1c" opacity="0.35"/><circle cx="136.2" cy="3.8" r="0.4" fill="#1c1c1c" opacity="0.35"/><circle cx="190.1" cy="126.7" r="0.8" fill="#1c1c1c" opacity="0.35"/><circle cx="122.1" cy="70.5" r="0.4" fill="#1c1c1c" opacity="0.35"/><circle cx="423.1" cy="52.9" r="0.4" fill="#1c1c1c" opacity="0.35"/><circle cx="331.2" cy="122.2" r="0.4" fill="#1c1c1c" opacity="0.35"/><circle cx="673.6" cy="172.3" r="0.4" fill="#1c1c1c" opacity="0.35"/><circle cx="306.9" cy="244.9" r="0.4" fill="#1c1c1c" opacity="0.35"/><circle cx="94.8" cy="54.6" r="0.4" fill="#1c1c1c" opacity="0.35"/><circle cx="189.6" cy="282.7" r="0.4" fill="#1c1c1c" opacity="0.35"/><circle cx="58.1" cy="48.5" r="0.4" fill="#1c1c1c" opacity="0.35"/><circle cx="543.2" cy="282.0" r="0.4" fill="#1c1c1c" opacity="0.35"/><circle cx="427.2" cy="111.8" r="0.4" fill="#1c1c1c" opacity="0.35"/><circle cx="484.7" cy="134.3" r="0.4" fill="#1c1c1c" opacity="0.35"/><circle cx="21.1" cy="109.4" r="0.4" fill="#1c1c1c" opacity="0.35"/><circle cx="623.4" cy="178.1" r="0.4" fill="#1c1c1c" opacity="0.35"/><circle cx="98.4" cy="194.1" r="0.4" fill="#1c1c1c" opacity="0.35"/><circle cx="466.8" cy="136.4" r="0.4" fill="#1c1c1c" opacity="0.35"/><circle cx="59.8" cy="52.3" r="0.4" fill="#1c1c1c" opacity="0.35"/><circle cx="90.9" cy="295.4" r="0.4" fill="#1c1c1c" opacity="0.35"/><circle cx="452.2" cy="18.9" r="0.4" fill="#1c1c1c" opacity="0.35"/><circle cx="585.6" cy="75.8" r="0.4" fill="#1c1c1c" opacity="0.35"/><circle cx="50.7" cy="56.3" r="0.4" fill="#1c1c1c" opacity="0.35"/><circle cx="215.2" cy="29.3" r="0.4" fill="#1c1c1c" opacity="0.35"/><circle cx="102.3" cy="289.1" r="0.4" fill="#1c1c1c" opacity="0.35"/><circle cx="71.0" cy="290.2" r="0.4" fill="#1c1c1c" opacity="0.35"/><circle cx="97.7" cy="129.1" r="0.8" fill="#1c1c1c" opacity="0.35"/><circle cx="611.7" cy="196.6" r="0.8" fill="#1c1c1c" opacity="0.35"/><circle cx="107.1" cy="105.0" r="0.4" fill="#1c1c1c" opacity="0.35"/><circle cx="482.9" cy="76.2" r="0.4" fill="#1c1c1c" opacity="0.35"/><circle cx="322.3" cy="66.2" r="0.4" fill="#1c1c1c" opacity="0.35"/><circle cx="66.1" cy="72.2" r="0.4" fill="#1c1c1c" opacity="0.35"/><circle cx="463.2" cy="73.3" r="0.4" fill="#1c1c1c" opacity="0.35"/><circle cx="706.9" cy="71.0" r="0.4" fill="#1c1c1c" opacity="0.35"/><circle cx="296.3" cy="133.6" r="0.4" fill="#1c1c1c" opacity="0.35"/><circle cx="159.6" cy="50.6" r="0.4" fill="#1c1c1c" opacity="0.35"/><circle cx="253.4" cy="197.9" r="0.4" fill="#1c1c1c" opacity="0.35"/><circle cx="532.1" cy="42.4" r="0.4" fill="#1c1c1c" opacity="0.35"/><circle cx="339.9" cy="64.8" r="0.8" fill="#1c1c1c" opacity="0.35"/><circle cx="242.7" cy="186.6" r="0.4" fill="#1c1c1c" opacity="0.35"/><circle cx="439.0" cy="279.1" r="0.4" fill="#1c1c1c" opacity="0.35"/><circle cx="134.2" cy="117.5" r="0.4" fill="#1c1c1c" opacity="0.35"/><circle cx="401.1" cy="294.0" r="0.4" fill="#1c1c1c" opacity="0.35"/><circle cx="39.1" cy="198.0" r="0.8" fill="#1c1c1c" opacity="0.35"/><circle cx="208.8" cy="299.8" r="0.4" fill="#1c1c1c" opacity="0.35"/><circle cx="274.1" cy="118.5" r="0.4" fill="#1c1c1c" opacity="0.35"/><circle cx="559.1" cy="122.1" r="0.4" fill="#1c1c1c" opacity="0.35"/><circle cx="563.4" cy="282.3" r="0.4" fill="#1c1c1c" opacity="0.35"/><circle cx="7.1" cy="198.3" r="0.4" fill="#1c1c1c" opacity="0.35"/><circle cx="480.0" cy="226.7" r="0.4" fill="#1c1c1c" opacity="0.35"/><circle cx="358.4" cy="175.9" r="0.4" fill="#1c1c1c" opacity="0.35"/><circle cx="81.9" cy="90.1" r="0.4" fill="#1c1c1c" opacity="0.35"/><circle cx="13.9" cy="285.6" r="0.4" fill="#1c1c1c" opacity="0.35"/><circle cx="486.7" cy="235.6" r="0.4" fill="#1c1c1c" opacity="0.35"/><circle cx="490.5" cy="295.6" r="0.4" fill="#1c1c1c" opacity="0.35"/><circle cx="278.4" cy="86.3" r="0.4" fill="#1c1c1c" opacity="0.35"/><circle cx="506.2" cy="213.1" r="0.4" fill="#1c1c1c" opacity="0.35"/><circle cx="450.9" cy="91.0" r="0.4" fill="#1c1c1c" opacity="0.35"/><circle cx="637.4" cy="213.5" r="0.4" fill="#1c1c1c" opacity="0.35"/><circle cx="670.6" cy="183.9" r="0.4" fill="#1c1c1c" opacity="0.35"/><circle cx="110.2" cy="296.1" r="0.8" fill="#1c1c1c" opacity="0.35"/><circle cx="133.8" cy="129.5" r="0.8" fill="#1c1c1c" opacity="0.35"/><circle cx="316.9" cy="205.4" r="0.4" fill="#1c1c1c" opacity="0.35"/><circle cx="100.2" cy="148.1" r="0.4" fill="#1c1c1c" opacity="0.35"/><circle cx="329.0" cy="127.2" r="0.4" fill="#1c1c1c" opacity="0.35"/><circle cx="474.3" cy="89.1" r="0.4" fill="#1c1c1c" opacity="0.35"/><circle cx="719.7" cy="152.7" r="0.4" fill="#1c1c1c" opacity="0.35"/><circle cx="707.4" cy="114.9" r="0.4" fill="#1c1c1c" opacity="0.35"/><circle cx="390.0" cy="82.6" r="0.4" fill="#1c1c1c" opacity="0.35"/><circle cx="411.0" cy="96.2" r="0.4" fill="#1c1c1c" opacity="0.35"/><circle cx="546.4" cy="225.4" r="0.4" fill="#1c1c1c" opacity="0.35"/><circle cx="638.7" cy="242.3" r="0.8" fill="#1c1c1c" opacity="0.35"/><circle cx="72.6" cy="279.7" r="0.4" fill="#1c1c1c" opacity="0.35"/><circle cx="138.4" cy="298.4" r="0.4" fill="#1c1c1c" opacity="0.35"/><circle cx="409.4" cy="99.3" r="0.4" fill="#1c1c1c" opacity="0.35"/><circle cx="527.7" cy="23.7" r="0.4" fill="#1c1c1c" opacity="0.35"/><circle cx="465.2" cy="78.9" r="0.4" fill="#1c1c1c" opacity="0.35"/><circle cx="294.7" cy="46.4" r="0.4" fill="#1c1c1c" opacity="0.35"/><circle cx="595.7" cy="0.7" r="0.4" fill="#1c1c1c" opacity="0.35"/><circle cx="324.5" cy="139.8" r="0.4" fill="#1c1c1c" opacity="0.35"/><circle cx="636.9" cy="71.2" r="0.4" fill="#1c1c1c" opacity="0.35"/><circle cx="530.3" cy="23.6" r="0.4" fill="#1c1c1c" opacity="0.35"/><circle cx="468.3" cy="196.0" r="0.4" fill="#1c1c1c" opacity="0.35"/><circle cx="499.0" cy="187.1" r="0.4" fill="#1c1c1c" opacity="0.35"/><circle cx="330.1" cy="171.1" r="0.4" fill="#1c1c1c" opacity="0.35"/><circle cx="129.8" cy="82.0" r="0.4" fill="#1c1c1c" opacity="0.35"/><circle cx="32.7" cy="148.4" r="0.4" fill="#1c1c1c" opacity="0.35"/><circle cx="426.2" cy="49.0" r="0.4" fill="#1c1c1c" opacity="0.35"/><circle cx="717.3" cy="123.2" r="0.4" fill="#1c1c1c" opacity="0.35"/><circle cx="8.1" cy="82.2" r="0.4" fill="#1c1c1c" opacity="0.35"/><circle cx="274.0" cy="103.3" r="0.4" fill="#1c1c1c" opacity="0.35"/><circle cx="250.4" cy="156.7" r="0.4" fill="#1c1c1c" opacity="0.35"/><circle cx="636.9" cy="114.9" r="0.4" fill="#1c1c1c" opacity="0.35"/><circle cx="226.0" cy="242.4" r="0.4" fill="#1c1c1c" opacity="0.35"/><circle cx="24.5" cy="120.2" r="0.4" fill="#1c1c1c" opacity="0.35"/><circle cx="293.9" cy="292.2" r="0.8" fill="#1c1c1c" opacity="0.35"/><circle cx="351.5" cy="130.3" r="0.4" fill="#1c1c1c" opacity="0.35"/><circle cx="522.6" cy="83.3" r="0.4" fill="#1c1c1c" opacity="0.35"/><circle cx="674.7" cy="240.0" r="0.4" fill="#1c1c1c" opacity="0.35"/><circle cx="455.4" cy="95.9" r="0.4" fill="#1c1c1c" opacity="0.35"/><circle cx="389.3" cy="152.0" r="0.4" fill="#1c1c1c" opacity="0.35"/><circle cx="255.4" cy="124.3" r="0.4" fill="#1c1c1c" opacity="0.35"/><circle cx="192.5" cy="54.5" r="0.4" fill="#1c1c1c" opacity="0.35"/><circle cx="551.7" cy="23.1" r="0.4" fill="#1c1c1c" opacity="0.35"/><circle cx="383.3" cy="67.9" r="0.4" fill="#1c1c1c" opacity="0.35"/><circle cx="350.3" cy="62.7" r="0.4" fill="#1c1c1c" opacity="0.35"/><circle cx="625.0" cy="142.6" r="0.4" fill="#1c1c1c" opacity="0.35"/><circle cx="441.1" cy="265.8" r="0.4" fill="#1c1c1c" opacity="0.35"/><circle cx="563.7" cy="4.2" r="0.4" fill="#1c1c1c" opacity="0.35"/><circle cx="30.7" cy="7.6" r="0.4" fill="#1c1c1c" opacity="0.35"/><circle cx="152.9" cy="130.6" r="0.4" fill="#1c1c1c" opacity="0.35"/><circle cx="1.4" cy="48.8" r="0.8" fill="#1c1c1c" opacity="0.35"/><circle cx="713.5" cy="141.3" r="0.4" fill="#1c1c1c" opacity="0.35"/><circle cx="460.7" cy="82.8" r="0.4" fill="#1c1c1c" opacity="0.35"/><circle cx="716.0" cy="247.0" r="0.4" fill="#1c1c1c" opacity="0.35"/><circle cx="36.7" cy="157.7" r="0.4" fill="#1c1c1c" opacity="0.35"/><circle cx="244.5" cy="205.5" r="0.4" fill="#1c1c1c" opacity="0.35"/><circle cx="637.9" cy="209.3" r="0.4" fill="#1c1c1c" opacity="0.35"/><circle cx="585.3" cy="236.2" r="0.4" fill="#1c1c1c" opacity="0.35"/><circle cx="472.1" cy="37.8" r="0.4" fill="#1c1c1c" opacity="0.35"/><circle cx="344.0" cy="68.2" r="0.4" fill="#1c1c1c" opacity="0.35"/><circle cx="490.0" cy="279.7" r="0.4" fill="#1c1c1c" opacity="0.35"/><circle cx="364.0" cy="174.5" r="0.4" fill="#1c1c1c" opacity="0.35"/><circle cx="148.3" cy="177.7" r="0.4" fill="#1c1c1c" opacity="0.35"/><circle cx="576.1" cy="260.3" r="0.4" fill="#1c1c1c" opacity="0.35"/><circle cx="83.0" cy="20.6" r="0.4" fill="#1c1c1c" opacity="0.35"/><circle cx="47.1" cy="117.0" r="0.4" fill="#1c1c1c" opacity="0.35"/><circle cx="433.1" cy="229.5" r="0.4" fill="#1c1c1c" opacity="0.35"/><circle cx="500.6" cy="16.4" r="0.4" fill="#1c1c1c" opacity="0.35"/><circle cx="245.2" cy="94.4" r="0.4" fill="#1c1c1c" opacity="0.35"/><circle cx="628.6" cy="259.4" r="0.4" fill="#1c1c1c" opacity="0.35"/><circle cx="511.6" cy="89.7" r="0.4" fill="#1c1c1c" opacity="0.35"/><circle cx="60.9" cy="180.2" r="0.4" fill="#1c1c1c" opacity="0.35"/><circle cx="558.0" cy="87.1" r="0.4" fill="#1c1c1c" opacity="0.35"/><circle cx="262.9" cy="42.5" r="0.4" fill="#1c1c1c" opacity="0.35"/><circle cx="239.7" cy="267.4" r="0.4" fill="#1c1c1c" opacity="0.35"/><circle cx="601.8" cy="264.4" r="0.4" fill="#1c1c1c" opacity="0.35"/><circle cx="192.1" cy="268.3" r="0.4" fill="#1c1c1c" opacity="0.35"/><circle cx="154.5" cy="85.3" r="0.4" fill="#1c1c1c" opacity="0.35"/><circle cx="264.6" cy="281.0" r="0.8" fill="#1c1c1c" opacity="0.35"/><circle cx="226.5" cy="33.5" r="0.8" fill="#1c1c1c" opacity="0.35"/><circle cx="662.1" cy="76.0" r="0.4" fill="#1c1c1c" opacity="0.35"/><circle cx="292.0" cy="162.3" r="0.4" fill="#1c1c1c" opacity="0.35"/><circle cx="76.7" cy="91.6" r="0.4" fill="#1c1c1c" opacity="0.35"/><circle cx="558.6" cy="5.5" r="0.4" fill="#1c1c1c" opacity="0.35"/><circle cx="526.0" cy="210.9" r="0.4" fill="#1c1c1c" opacity="0.35"/><circle cx="409.3" cy="141.1" r="0.4" fill="#1c1c1c" opacity="0.35"/><circle cx="22.7" cy="137.0" r="0.4" fill="#1c1c1c" opacity="0.35"/><circle cx="212.4" cy="144.9" r="0.4" fill="#1c1c1c" opacity="0.35"/><circle cx="687.2" cy="101.9" r="0.4" fill="#1c1c1c" opacity="0.35"/><circle cx="653.9" cy="24.2" r="0.4" fill="#1c1c1c" opacity="0.35"/><circle cx="20.1" cy="5.4" r="0.4" fill="#1c1c1c" opacity="0.35"/><circle cx="16.2" cy="5.7" r="0.4" fill="#1c1c1c" opacity="0.35"/><circle cx="171.3" cy="142.3" r="0.4" fill="#1c1c1c" opacity="0.35"/><circle cx="512.1" cy="174.1" r="0.4" fill="#1c1c1c" opacity="0.35"/><circle cx="537.6" cy="231.1" r="0.4" fill="#1c1c1c" opacity="0.35"/><circle cx="617.5" cy="243.0" r="0.4" fill="#1c1c1c" opacity="0.35"/><circle cx="242.9" cy="46.7" r="0.4" fill="#1c1c1c" opacity="0.35"/><circle cx="126.7" cy="20.6" r="0.4" fill="#1c1c1c" opacity="0.35"/><circle cx="532.8" cy="10.0" r="0.8" fill="#1c1c1c" opacity="0.35"/><circle cx="102.2" cy="30.7" r="0.4" fill="#1c1c1c" opacity="0.35"/><circle cx="84.7" cy="77.3" r="0.4" fill="#1c1c1c" opacity="0.35"/>
    
    <g opacity="0.06">
      <g transform="rotate(22 360 150)">
        <rect x="-100" y="-50" width="40" height="400" fill="#d4af37"/><rect x="0" y="-50" width="40" height="400" fill="#d4af37"/><rect x="100" y="-50" width="40" height="400" fill="#d4af37"/><rect x="200" y="-50" width="40" height="400" fill="#d4af37"/><rect x="300" y="-50" width="40" height="400" fill="#d4af37"/><rect x="400" y="-50" width="40" height="400" fill="#d4af37"/><rect x="500" y="-50" width="40" height="400" fill="#d4af37"/><rect x="600" y="-50" width="40" height="400" fill="#d4af37"/><rect x="700" y="-50" width="40" height="400" fill="#d4af37"/>
      </g>
    </g>
  

    <!-- Double-line top border -->
    <line x1="34" y1="32" x2="686" y2="32" stroke="#d4af37" stroke-width="1.2"/>
    <line x1="34" y1="36" x2="686" y2="36" stroke="#d4af37" stroke-width="0.5"/>
    <line x1="34" y1="264" x2="686" y2="264" stroke="#d4af37" stroke-width="0.5"/>
    <line x1="34" y1="268" x2="686" y2="268" stroke="#d4af37" stroke-width="1.2"/>

    <!-- Header label -->
    <text x="46" y="62" font-family="Georgia, 'Times New Roman', serif" font-size="11" letter-spacing="3" fill="#d4af37">AXIOM · BASE · ERC-8257</text>

    <!-- Main title -->
    <text x="46" y="124" font-family="Georgia, 'Times New Roman', serif" font-size="46" font-weight="700" fill="#d4af37">AXIOM</text>
    <text x="46" y="164" font-family="Georgia, 'Times New Roman', serif" font-size="34" font-style="italic" fill="#f5d36a">tool pass</text>

    <!-- Tagline -->
    <text x="46" y="196" font-family="Georgia, serif" font-size="10" letter-spacing="4" fill="#d4af37">ADMIT ONE · BYPASS x402 · LIFETIME</text>

    <!-- Serial -->
    <text x="46" y="248" font-family="Courier, monospace" font-size="11" letter-spacing="2" fill="#d4af37">№ 0006 / 1000</text>

    <!-- Sigil(s) — right side always, plus mirrored left side if Twin -->
    
    <g transform="rotate(47 516 226)">
      <circle cx="516" cy="226" r="32" fill="none" stroke="#d4af37" stroke-width="1.5"/>
      <circle cx="516" cy="226" r="29.44" fill="none" stroke="#d4af37" stroke-width="0.4" stroke-dasharray="2 2"/>
      
      <circle cx="516" cy="226" r="23.04" fill="none" stroke="#d4af37" stroke-width="1"/>
      <circle cx="516" cy="226" r="15.36" fill="none" stroke="#d4af37" stroke-width="0.8"/>
      <circle cx="516" cy="226" r="5.76" fill="#f5d36a"/>
    
    </g>
  
    

    <!-- Stub background tint -->
    <rect x="576" y="14" width="130" height="272" fill="#1c1c1c" opacity="0.45"/>

    <!-- Foil strip on stub -->
    <rect x="588" y="34" width="106" height="6" fill="url(#foil)"/>

    <!-- Stub rotated text -->
    <g transform="translate(641, 150) rotate(-90)">
      <text text-anchor="middle" font-family="Georgia, serif" font-size="20" font-weight="700" letter-spacing="6" fill="#d4af37">AXIOM TOOL PASS</text>
      <text y="22" text-anchor="middle" font-family="Courier, monospace" font-size="9" letter-spacing="3" fill="#d4af37">№ 0006 / 1000</text>
    </g>
  </g>

  <!-- Perforation -->
  <circle cx="576" cy="26" r="2" fill="#0d0d0d" stroke="#1c1c1c" stroke-width="0.5"/><circle cx="576" cy="38" r="2" fill="#0d0d0d" stroke="#1c1c1c" stroke-width="0.5"/><circle cx="576" cy="50" r="2" fill="#0d0d0d" stroke="#1c1c1c" stroke-width="0.5"/><circle cx="576" cy="62" r="2" fill="#0d0d0d" stroke="#1c1c1c" stroke-width="0.5"/><circle cx="576" cy="74" r="2" fill="#0d0d0d" stroke="#1c1c1c" stroke-width="0.5"/><circle cx="576" cy="86" r="2" fill="#0d0d0d" stroke="#1c1c1c" stroke-width="0.5"/><circle cx="576" cy="98" r="2" fill="#0d0d0d" stroke="#1c1c1c" stroke-width="0.5"/><circle cx="576" cy="110" r="2" fill="#0d0d0d" stroke="#1c1c1c" stroke-width="0.5"/><circle cx="576" cy="122" r="2" fill="#0d0d0d" stroke="#1c1c1c" stroke-width="0.5"/><circle cx="576" cy="134" r="2" fill="#0d0d0d" stroke="#1c1c1c" stroke-width="0.5"/><circle cx="576" cy="146" r="2" fill="#0d0d0d" stroke="#1c1c1c" stroke-width="0.5"/><circle cx="576" cy="158" r="2" fill="#0d0d0d" stroke="#1c1c1c" stroke-width="0.5"/><circle cx="576" cy="170" r="2" fill="#0d0d0d" stroke="#1c1c1c" stroke-width="0.5"/><circle cx="576" cy="182" r="2" fill="#0d0d0d" stroke="#1c1c1c" stroke-width="0.5"/><circle cx="576" cy="194" r="2" fill="#0d0d0d" stroke="#1c1c1c" stroke-width="0.5"/><circle cx="576" cy="206" r="2" fill="#0d0d0d" stroke="#1c1c1c" stroke-width="0.5"/><circle cx="576" cy="218" r="2" fill="#0d0d0d" stroke="#1c1c1c" stroke-width="0.5"/><circle cx="576" cy="230" r="2" fill="#0d0d0d" stroke="#1c1c1c" stroke-width="0.5"/><circle cx="576" cy="242" r="2" fill="#0d0d0d" stroke="#1c1c1c" stroke-width="0.5"/><circle cx="576" cy="254" r="2" fill="#0d0d0d" stroke="#1c1c1c" stroke-width="0.5"/><circle cx="576" cy="266" r="2" fill="#0d0d0d" stroke="#1c1c1c" stroke-width="0.5"/><circle cx="576" cy="278" r="2" fill="#0d0d0d" stroke="#1c1c1c" stroke-width="0.5"/>

  <!-- Outer ticket outline -->
  <rect x="14" y="14" width="692" height="272" rx="6" ry="6" fill="none" stroke="#d4af37" stroke-width="1" opacity="0.4"/>
</svg>