<svg xmlns="http://www.w3.org/2000/svg" viewBox="0 0 720 300" width="720" height="300">
  <defs>
    <linearGradient id="foil" x1="0" y1="0" x2="1" y2="1">
      <stop offset="0%" stop-color="#b88438" stop-opacity="0.9"/>
      <stop offset="50%" stop-color="#e2c98a" stop-opacity="0.4"/>
      <stop offset="100%" stop-color="#b88438" stop-opacity="0.9"/>
    </linearGradient>
    <clipPath id="ticket">
      <rect x="14" y="14" width="692" height="272" rx="6" ry="6"/>
    </clipPath>
  </defs>

  <!-- Outer canvas -->
  <rect width="720" height="300" fill="#1a1a1a"/>

  <!-- Ticket body -->
  <g clip-path="url(#ticket)">
    <rect x="14" y="14" width="692" height="272" fill="#e2c98a"/>
    <circle cx="59.7" cy="78.5" r="0.4" fill="#cdaf68" opacity="0.35"/><circle cx="411.7" cy="205.3" r="0.4" fill="#cdaf68" opacity="0.35"/><circle cx="269.0" cy="165.1" r="0.4" fill="#cdaf68" opacity="0.35"/><circle cx="297.2" cy="46.5" r="0.4" fill="#cdaf68" opacity="0.35"/><circle cx="93.9" cy="279.8" r="0.4" fill="#cdaf68" opacity="0.35"/><circle cx="334.6" cy="60.1" r="0.4" fill="#cdaf68" opacity="0.35"/><circle cx="373.3" cy="174.5" r="0.4" fill="#cdaf68" opacity="0.35"/><circle cx="315.6" cy="268.7" r="0.4" fill="#cdaf68" opacity="0.35"/><circle cx="42.8" cy="88.7" r="0.4" fill="#cdaf68" opacity="0.35"/><circle cx="508.6" cy="21.5" r="0.8" fill="#cdaf68" opacity="0.35"/><circle cx="91.7" cy="185.8" r="0.4" fill="#cdaf68" opacity="0.35"/><circle cx="93.4" cy="228.8" r="0.4" fill="#cdaf68" opacity="0.35"/><circle cx="435.1" cy="169.8" r="0.4" fill="#cdaf68" opacity="0.35"/><circle cx="645.4" cy="70.3" r="0.4" fill="#cdaf68" opacity="0.35"/><circle cx="331.7" cy="196.7" r="0.4" fill="#cdaf68" opacity="0.35"/><circle cx="164.9" cy="201.0" r="0.4" fill="#cdaf68" opacity="0.35"/><circle cx="401.0" cy="21.5" r="0.4" fill="#cdaf68" opacity="0.35"/><circle cx="579.0" cy="0.1" r="0.4" fill="#cdaf68" opacity="0.35"/><circle cx="229.3" cy="54.8" r="0.4" fill="#cdaf68" opacity="0.35"/><circle cx="1.9" cy="267.0" r="0.4" fill="#cdaf68" opacity="0.35"/><circle cx="124.6" cy="191.0" r="0.4" fill="#cdaf68" opacity="0.35"/><circle cx="617.4" cy="204.0" r="0.4" fill="#cdaf68" opacity="0.35"/><circle cx="250.5" cy="195.8" r="0.4" fill="#cdaf68" opacity="0.35"/><circle cx="46.6" cy="199.8" r="0.4" fill="#cdaf68" opacity="0.35"/><circle cx="397.8" cy="4.6" r="0.4" fill="#cdaf68" opacity="0.35"/><circle cx="15.6" cy="126.8" r="0.4" fill="#cdaf68" opacity="0.35"/><circle cx="32.9" cy="28.4" r="0.4" fill="#cdaf68" opacity="0.35"/><circle cx="401.8" cy="171.8" r="0.4" fill="#cdaf68" opacity="0.35"/><circle cx="485.1" cy="181.7" r="0.4" fill="#cdaf68" opacity="0.35"/><circle cx="611.1" cy="168.1" r="0.4" fill="#cdaf68" opacity="0.35"/><circle cx="407.3" cy="70.2" r="0.4" fill="#cdaf68" opacity="0.35"/><circle cx="578.7" cy="273.5" r="0.4" fill="#cdaf68" opacity="0.35"/><circle cx="618.3" cy="152.1" r="0.4" fill="#cdaf68" opacity="0.35"/><circle cx="2.0" cy="93.0" r="0.4" fill="#cdaf68" opacity="0.35"/><circle cx="151.0" cy="141.5" r="0.8" fill="#cdaf68" opacity="0.35"/><circle cx="663.0" cy="231.7" r="0.4" fill="#cdaf68" opacity="0.35"/><circle cx="629.0" cy="117.7" r="0.4" fill="#cdaf68" opacity="0.35"/><circle cx="121.7" cy="88.6" r="0.4" fill="#cdaf68" opacity="0.35"/><circle cx="476.1" cy="97.1" r="0.4" fill="#cdaf68" opacity="0.35"/><circle cx="132.4" cy="184.3" r="0.4" fill="#cdaf68" opacity="0.35"/><circle cx="202.4" cy="259.0" r="0.4" fill="#cdaf68" opacity="0.35"/><circle cx="43.1" cy="213.0" r="0.4" fill="#cdaf68" opacity="0.35"/><circle cx="574.1" cy="171.7" r="0.4" fill="#cdaf68" opacity="0.35"/><circle cx="719.4" cy="88.7" r="0.4" fill="#cdaf68" opacity="0.35"/><circle cx="39.2" cy="148.6" r="0.4" fill="#cdaf68" opacity="0.35"/><circle cx="360.4" cy="119.1" r="0.4" fill="#cdaf68" opacity="0.35"/><circle cx="593.4" cy="221.0" r="0.4" fill="#cdaf68" opacity="0.35"/><circle cx="62.1" cy="196.7" r="0.4" fill="#cdaf68" opacity="0.35"/><circle cx="685.2" cy="51.2" r="0.4" fill="#cdaf68" opacity="0.35"/><circle cx="550.8" cy="165.2" r="0.4" fill="#cdaf68" opacity="0.35"/><circle cx="565.9" cy="37.4" r="0.4" fill="#cdaf68" opacity="0.35"/><circle cx="219.8" cy="69.5" r="0.4" fill="#cdaf68" opacity="0.35"/><circle cx="44.8" cy="227.7" r="0.4" fill="#cdaf68" opacity="0.35"/><circle cx="567.9" cy="279.5" r="0.4" fill="#cdaf68" opacity="0.35"/><circle cx="681.1" cy="47.8" r="0.4" fill="#cdaf68" opacity="0.35"/><circle cx="359.7" cy="76.8" r="0.4" fill="#cdaf68" opacity="0.35"/><circle cx="657.2" cy="260.1" r="0.4" fill="#cdaf68" opacity="0.35"/><circle cx="200.0" cy="182.3" r="0.8" fill="#cdaf68" opacity="0.35"/><circle cx="563.4" cy="151.3" r="0.4" fill="#cdaf68" opacity="0.35"/><circle cx="516.7" cy="142.9" r="0.4" fill="#cdaf68" opacity="0.35"/><circle cx="138.7" cy="11.6" r="0.4" fill="#cdaf68" opacity="0.35"/><circle cx="161.1" cy="40.5" r="0.4" fill="#cdaf68" opacity="0.35"/><circle cx="379.0" cy="37.5" r="0.4" fill="#cdaf68" opacity="0.35"/><circle cx="271.9" cy="184.4" r="0.4" fill="#cdaf68" opacity="0.35"/><circle cx="405.5" cy="88.7" r="0.4" fill="#cdaf68" opacity="0.35"/><circle cx="25.1" cy="11.0" r="0.4" fill="#cdaf68" opacity="0.35"/><circle cx="672.4" cy="198.6" r="0.4" fill="#cdaf68" opacity="0.35"/><circle cx="145.8" cy="227.4" r="0.4" fill="#cdaf68" opacity="0.35"/><circle cx="645.2" cy="22.9" r="0.4" fill="#cdaf68" opacity="0.35"/><circle cx="232.5" cy="64.5" r="0.4" fill="#cdaf68" opacity="0.35"/><circle cx="209.3" cy="173.3" r="0.4" fill="#cdaf68" opacity="0.35"/><circle cx="697.7" cy="114.2" r="0.4" fill="#cdaf68" opacity="0.35"/><circle cx="688.9" cy="200.7" r="0.4" fill="#cdaf68" opacity="0.35"/><circle cx="611.1" cy="125.5" r="0.4" fill="#cdaf68" opacity="0.35"/><circle cx="202.1" cy="232.9" r="0.4" fill="#cdaf68" opacity="0.35"/><circle cx="22.5" cy="278.5" r="0.4" fill="#cdaf68" opacity="0.35"/><circle cx="186.6" cy="122.6" r="0.4" fill="#cdaf68" opacity="0.35"/><circle cx="306.1" cy="236.6" r="0.4" fill="#cdaf68" opacity="0.35"/><circle cx="543.3" cy="27.3" r="0.4" fill="#cdaf68" opacity="0.35"/><circle cx="141.1" cy="7.1" r="0.4" fill="#cdaf68" opacity="0.35"/><circle cx="1.3" cy="266.3" r="0.4" fill="#cdaf68" opacity="0.35"/><circle cx="199.3" cy="31.2" r="0.4" fill="#cdaf68" opacity="0.35"/><circle cx="602.3" cy="233.7" r="0.4" fill="#cdaf68" opacity="0.35"/><circle cx="384.6" cy="186.8" r="0.4" fill="#cdaf68" opacity="0.35"/><circle cx="584.1" cy="60.8" r="0.4" fill="#cdaf68" opacity="0.35"/><circle cx="387.0" cy="63.8" r="0.4" fill="#cdaf68" opacity="0.35"/><circle cx="306.3" cy="180.3" r="0.4" fill="#cdaf68" opacity="0.35"/><circle cx="697.4" cy="249.9" r="0.4" fill="#cdaf68" opacity="0.35"/><circle cx="212.0" cy="258.9" r="0.4" fill="#cdaf68" opacity="0.35"/><circle cx="209.8" cy="72.4" r="0.4" fill="#cdaf68" opacity="0.35"/><circle cx="52.4" cy="136.6" r="0.4" fill="#cdaf68" opacity="0.35"/><circle cx="285.8" cy="168.3" r="0.4" fill="#cdaf68" opacity="0.35"/><circle cx="193.8" cy="57.1" r="0.4" fill="#cdaf68" opacity="0.35"/><circle cx="442.6" cy="135.3" r="0.8" fill="#cdaf68" opacity="0.35"/><circle cx="317.4" cy="30.0" r="0.4" fill="#cdaf68" opacity="0.35"/><circle cx="486.9" cy="93.2" r="0.4" fill="#cdaf68" opacity="0.35"/><circle cx="309.9" cy="74.1" r="0.4" fill="#cdaf68" opacity="0.35"/><circle cx="566.7" cy="24.1" r="0.4" fill="#cdaf68" opacity="0.35"/><circle cx="388.0" cy="4.6" r="0.4" fill="#cdaf68" opacity="0.35"/><circle cx="381.7" cy="166.3" r="0.4" fill="#cdaf68" opacity="0.35"/><circle cx="477.6" cy="55.7" r="0.4" fill="#cdaf68" opacity="0.35"/><circle cx="569.0" cy="50.9" r="0.4" fill="#cdaf68" opacity="0.35"/><circle cx="275.3" cy="202.0" r="0.8" fill="#cdaf68" opacity="0.35"/><circle cx="74.5" cy="119.7" r="0.4" fill="#cdaf68" opacity="0.35"/><circle cx="272.9" cy="76.2" r="0.4" fill="#cdaf68" opacity="0.35"/><circle cx="160.0" cy="71.3" r="0.4" fill="#cdaf68" opacity="0.35"/><circle cx="25.3" cy="222.0" r="0.4" fill="#cdaf68" opacity="0.35"/><circle cx="523.1" cy="153.7" r="0.4" fill="#cdaf68" opacity="0.35"/><circle cx="437.9" cy="111.0" r="0.8" fill="#cdaf68" opacity="0.35"/><circle cx="294.0" cy="14.5" r="0.8" fill="#cdaf68" opacity="0.35"/><circle cx="119.1" cy="239.6" r="0.4" fill="#cdaf68" opacity="0.35"/><circle cx="286.2" cy="283.2" r="0.4" fill="#cdaf68" opacity="0.35"/><circle cx="117.5" cy="278.1" r="0.4" fill="#cdaf68" opacity="0.35"/><circle cx="554.3" cy="206.0" r="0.4" fill="#cdaf68" opacity="0.35"/><circle cx="569.3" cy="99.8" r="0.4" fill="#cdaf68" opacity="0.35"/><circle cx="305.7" cy="101.7" r="0.4" fill="#cdaf68" opacity="0.35"/><circle cx="290.3" cy="207.0" r="0.4" fill="#cdaf68" opacity="0.35"/><circle cx="336.3" cy="108.6" r="0.4" fill="#cdaf68" opacity="0.35"/><circle cx="341.3" cy="84.7" r="0.4" fill="#cdaf68" opacity="0.35"/><circle cx="331.6" cy="208.2" r="0.4" fill="#cdaf68" opacity="0.35"/><circle cx="677.3" cy="159.0" r="0.4" fill="#cdaf68" opacity="0.35"/><circle cx="542.3" cy="122.7" r="0.4" fill="#cdaf68" opacity="0.35"/><circle cx="452.2" cy="277.4" r="0.4" fill="#cdaf68" opacity="0.35"/><circle cx="219.8" cy="163.6" r="0.8" fill="#cdaf68" opacity="0.35"/><circle cx="711.5" cy="143.9" r="0.4" fill="#cdaf68" opacity="0.35"/><circle cx="567.4" cy="78.5" r="0.4" fill="#cdaf68" opacity="0.35"/><circle cx="254.1" cy="132.4" r="0.4" fill="#cdaf68" opacity="0.35"/><circle cx="671.1" cy="54.7" r="0.4" fill="#cdaf68" opacity="0.35"/><circle cx="128.5" cy="279.3" r="0.4" fill="#cdaf68" opacity="0.35"/><circle cx="358.6" cy="158.6" r="0.4" fill="#cdaf68" opacity="0.35"/><circle cx="86.5" cy="3.6" r="0.4" fill="#cdaf68" opacity="0.35"/><circle cx="351.3" cy="185.7" r="0.4" fill="#cdaf68" opacity="0.35"/><circle cx="159.2" cy="138.4" r="0.4" fill="#cdaf68" opacity="0.35"/><circle cx="44.9" cy="143.0" r="0.4" fill="#cdaf68" opacity="0.35"/><circle cx="58.8" cy="27.7" r="0.4" fill="#cdaf68" opacity="0.35"/><circle cx="661.0" cy="31.8" r="0.4" fill="#cdaf68" opacity="0.35"/><circle cx="294.5" cy="0.1" r="0.8" fill="#cdaf68" opacity="0.35"/><circle cx="716.3" cy="70.8" r="0.4" fill="#cdaf68" opacity="0.35"/><circle cx="436.9" cy="117.4" r="0.4" fill="#cdaf68" opacity="0.35"/><circle cx="374.8" cy="29.6" r="0.8" fill="#cdaf68" opacity="0.35"/><circle cx="240.9" cy="112.0" r="0.4" fill="#cdaf68" opacity="0.35"/><circle cx="369.4" cy="38.2" r="0.4" fill="#cdaf68" opacity="0.35"/><circle cx="31.5" cy="143.7" r="0.4" fill="#cdaf68" opacity="0.35"/><circle cx="186.4" cy="170.0" r="0.4" fill="#cdaf68" opacity="0.35"/><circle cx="26.8" cy="174.8" r="0.4" fill="#cdaf68" opacity="0.35"/><circle cx="292.3" cy="172.4" r="0.4" fill="#cdaf68" opacity="0.35"/><circle cx="544.0" cy="133.3" r="0.4" fill="#cdaf68" opacity="0.35"/><circle cx="225.2" cy="19.5" r="0.4" fill="#cdaf68" opacity="0.35"/><circle cx="696.2" cy="282.9" r="0.4" fill="#cdaf68" opacity="0.35"/><circle cx="348.5" cy="285.9" r="0.4" fill="#cdaf68" opacity="0.35"/><circle cx="329.8" cy="15.0" r="0.4" fill="#cdaf68" opacity="0.35"/><circle cx="423.3" cy="107.2" r="0.4" fill="#cdaf68" opacity="0.35"/><circle cx="163.5" cy="100.3" r="0.4" fill="#cdaf68" opacity="0.35"/><circle cx="386.3" cy="278.6" r="0.4" fill="#cdaf68" opacity="0.35"/><circle cx="282.1" cy="12.0" r="0.4" fill="#cdaf68" opacity="0.35"/><circle cx="137.5" cy="208.8" r="0.4" fill="#cdaf68" opacity="0.35"/><circle cx="493.6" cy="6.7" r="0.4" fill="#cdaf68" opacity="0.35"/><circle cx="598.9" cy="112.4" r="0.4" fill="#cdaf68" opacity="0.35"/><circle cx="210.0" cy="139.3" r="0.4" fill="#cdaf68" opacity="0.35"/><circle cx="401.9" cy="268.6" r="0.4" fill="#cdaf68" opacity="0.35"/><circle cx="483.3" cy="286.3" r="0.4" fill="#cdaf68" opacity="0.35"/><circle cx="427.0" cy="131.2" r="0.4" fill="#cdaf68" opacity="0.35"/><circle cx="420.7" cy="116.3" r="0.8" fill="#cdaf68" opacity="0.35"/><circle cx="425.7" cy="65.5" r="0.4" fill="#cdaf68" opacity="0.35"/><circle cx="280.8" cy="205.5" r="0.4" fill="#cdaf68" opacity="0.35"/><circle cx="147.6" cy="70.3" r="0.4" fill="#cdaf68" opacity="0.35"/><circle cx="576.4" cy="5.3" r="0.4" fill="#cdaf68" opacity="0.35"/><circle cx="180.3" cy="209.9" r="0.4" fill="#cdaf68" opacity="0.35"/><circle cx="693.1" cy="240.3" r="0.8" fill="#cdaf68" opacity="0.35"/><circle cx="714.2" cy="225.7" r="0.4" fill="#cdaf68" opacity="0.35"/><circle cx="60.5" cy="206.2" r="0.4" fill="#cdaf68" opacity="0.35"/><circle cx="280.3" cy="123.5" r="0.8" fill="#cdaf68" opacity="0.35"/><circle cx="140.9" cy="11.5" r="0.4" fill="#cdaf68" opacity="0.35"/><circle cx="203.7" cy="175.1" r="0.4" fill="#cdaf68" opacity="0.35"/><circle cx="614.8" cy="186.0" r="0.4" fill="#cdaf68" opacity="0.35"/><circle cx="216.7" cy="194.0" r="0.4" fill="#cdaf68" opacity="0.35"/><circle cx="576.1" cy="137.6" r="0.4" fill="#cdaf68" opacity="0.35"/><circle cx="182.2" cy="224.8" r="0.4" fill="#cdaf68" opacity="0.35"/><circle cx="602.2" cy="58.2" r="0.4" fill="#cdaf68" opacity="0.35"/><circle cx="115.9" cy="57.4" r="0.4" fill="#cdaf68" opacity="0.35"/><circle cx="610.6" cy="293.1" r="0.4" fill="#cdaf68" opacity="0.35"/><circle cx="234.3" cy="127.5" r="0.4" fill="#cdaf68" opacity="0.35"/><circle cx="36.4" cy="178.3" r="0.4" fill="#cdaf68" opacity="0.35"/><circle cx="439.5" cy="90.3" r="0.4" fill="#cdaf68" opacity="0.35"/><circle cx="42.3" cy="248.9" r="0.4" fill="#cdaf68" opacity="0.35"/><circle cx="657.3" cy="192.6" r="0.4" fill="#cdaf68" opacity="0.35"/><circle cx="450.6" cy="16.2" r="0.4" fill="#cdaf68" opacity="0.35"/><circle cx="420.4" cy="225.9" r="0.4" fill="#cdaf68" opacity="0.35"/><circle cx="704.3" cy="127.1" r="0.4" fill="#cdaf68" opacity="0.35"/><circle cx="241.5" cy="52.4" r="0.4" fill="#cdaf68" opacity="0.35"/><circle cx="517.4" cy="163.1" r="0.4" fill="#cdaf68" opacity="0.35"/><circle cx="375.0" cy="269.3" r="0.8" fill="#cdaf68" opacity="0.35"/><circle cx="591.2" cy="252.5" r="0.4" fill="#cdaf68" opacity="0.35"/><circle cx="275.1" cy="280.9" r="0.4" fill="#cdaf68" opacity="0.35"/><circle cx="522.9" cy="137.6" r="0.4" fill="#cdaf68" opacity="0.35"/><circle cx="558.6" cy="186.2" r="0.4" fill="#cdaf68" opacity="0.35"/><circle cx="619.1" cy="243.7" r="0.4" fill="#cdaf68" opacity="0.35"/><circle cx="318.0" cy="277.1" r="0.4" fill="#cdaf68" opacity="0.35"/><circle cx="698.8" cy="133.1" r="0.8" fill="#cdaf68" opacity="0.35"/><circle cx="155.4" cy="238.9" r="0.4" fill="#cdaf68" opacity="0.35"/><circle cx="557.6" cy="242.8" r="0.4" fill="#cdaf68" opacity="0.35"/><circle cx="11.3" cy="8.6" r="0.4" fill="#cdaf68" opacity="0.35"/><circle cx="27.4" cy="231.7" r="0.4" fill="#cdaf68" opacity="0.35"/><circle cx="54.9" cy="273.5" r="0.4" fill="#cdaf68" opacity="0.35"/><circle cx="192.0" cy="133.6" r="0.4" fill="#cdaf68" opacity="0.35"/><circle cx="245.5" cy="75.5" r="0.4" fill="#cdaf68" opacity="0.35"/><circle cx="402.0" cy="166.5" r="0.4" fill="#cdaf68" opacity="0.35"/><circle cx="82.5" cy="52.3" r="0.4" fill="#cdaf68" opacity="0.35"/><circle cx="169.2" cy="206.2" r="0.4" fill="#cdaf68" opacity="0.35"/><circle cx="261.7" cy="171.1" r="0.4" fill="#cdaf68" opacity="0.35"/><circle cx="78.5" cy="123.9" r="0.4" fill="#cdaf68" opacity="0.35"/><circle cx="423.6" cy="47.7" r="0.4" fill="#cdaf68" opacity="0.35"/><circle cx="202.1" cy="185.0" r="0.4" fill="#cdaf68" opacity="0.35"/><circle cx="59.6" cy="84.1" r="0.4" fill="#cdaf68" opacity="0.35"/><circle cx="315.8" cy="236.7" r="0.4" fill="#cdaf68" opacity="0.35"/><circle cx="97.6" cy="75.3" r="0.4" fill="#cdaf68" opacity="0.35"/><circle cx="4.3" cy="64.1" r="0.4" fill="#cdaf68" opacity="0.35"/><circle cx="69.0" cy="150.6" r="0.4" fill="#cdaf68" opacity="0.35"/><circle cx="43.2" cy="119.2" r="0.8" fill="#cdaf68" opacity="0.35"/><circle cx="94.0" cy="209.0" r="0.4" fill="#cdaf68" opacity="0.35"/>
    
    <g opacity="0.06">
      <g transform="rotate(-22 360 150)">
        <rect x="-100" y="-50" width="40" height="400" fill="#2b1c0b"/><rect x="0" y="-50" width="40" height="400" fill="#2b1c0b"/><rect x="100" y="-50" width="40" height="400" fill="#2b1c0b"/><rect x="200" y="-50" width="40" height="400" fill="#2b1c0b"/><rect x="300" y="-50" width="40" height="400" fill="#2b1c0b"/><rect x="400" y="-50" width="40" height="400" fill="#2b1c0b"/><rect x="500" y="-50" width="40" height="400" fill="#2b1c0b"/><rect x="600" y="-50" width="40" height="400" fill="#2b1c0b"/><rect x="700" y="-50" width="40" height="400" fill="#2b1c0b"/>
      </g>
    </g>
  

    <!-- Double-line top border -->
    <line x1="34" y1="32" x2="686" y2="32" stroke="#2b1c0b" stroke-width="1.2"/>
    <line x1="34" y1="36" x2="686" y2="36" stroke="#2b1c0b" stroke-width="0.5"/>
    <line x1="34" y1="264" x2="686" y2="264" stroke="#2b1c0b" stroke-width="0.5"/>
    <line x1="34" y1="268" x2="686" y2="268" stroke="#2b1c0b" stroke-width="1.2"/>

    <!-- Header label -->
    <text x="46" y="62" font-family="Georgia, 'Times New Roman', serif" font-size="11" letter-spacing="3" fill="#2b1c0b">AXIOM · BASE · ERC-8257</text>

    <!-- Main title -->
    <text x="46" y="124" font-family="Georgia, 'Times New Roman', serif" font-size="46" font-weight="700" fill="#2b1c0b">AXIOM</text>
    <text x="46" y="164" font-family="Georgia, 'Times New Roman', serif" font-size="34" font-style="italic" fill="#7a4f1d">tool pass</text>

    <!-- Tagline -->
    <text x="46" y="196" font-family="Georgia, serif" font-size="10" letter-spacing="4" fill="#2b1c0b">ADMIT ONE · BYPASS x402 · LIFETIME</text>

    <!-- Serial -->
    <text x="46" y="248" font-family="Courier, monospace" font-size="11" letter-spacing="2" fill="#2b1c0b">№ 0004 / 1000</text>

    <!-- Sigil(s) — right side always, plus mirrored left side if Twin -->
    
    <g transform="rotate(203 516 226)">
      <circle cx="516" cy="226" r="32" fill="none" stroke="#2b1c0b" stroke-width="1.5"/>
      <circle cx="516" cy="226" r="29.44" fill="none" stroke="#2b1c0b" stroke-width="0.4" stroke-dasharray="2 2"/>
      
      <circle cx="516" cy="226" r="23.04" fill="none" stroke="#2b1c0b" stroke-width="1"/>
      <circle cx="516" cy="226" r="15.36" fill="none" stroke="#2b1c0b" stroke-width="0.8"/>
      <circle cx="516" cy="226" r="5.76" fill="#7a4f1d"/>
    
    </g>
  
    

    <!-- Stub background tint -->
    <rect x="576" y="14" width="130" height="272" fill="#cdaf68" opacity="0.45"/>

    <!-- Foil strip on stub -->
    <rect x="588" y="34" width="106" height="6" fill="url(#foil)"/>

    <!-- Stub rotated text -->
    <g transform="translate(641, 150) rotate(-90)">
      <text text-anchor="middle" font-family="Georgia, serif" font-size="20" font-weight="700" letter-spacing="6" fill="#2b1c0b">AXIOM TOOL PASS</text>
      <text y="22" text-anchor="middle" font-family="Courier, monospace" font-size="9" letter-spacing="3" fill="#2b1c0b">№ 0004 / 1000</text>
    </g>
  </g>

  <!-- Perforation -->
  <circle cx="576" cy="26" r="2" fill="#e2c98a" stroke="#cdaf68" stroke-width="0.5"/><circle cx="576" cy="38" r="2" fill="#e2c98a" stroke="#cdaf68" stroke-width="0.5"/><circle cx="576" cy="50" r="2" fill="#e2c98a" stroke="#cdaf68" stroke-width="0.5"/><circle cx="576" cy="62" r="2" fill="#e2c98a" stroke="#cdaf68" stroke-width="0.5"/><circle cx="576" cy="74" r="2" fill="#e2c98a" stroke="#cdaf68" stroke-width="0.5"/><circle cx="576" cy="86" r="2" fill="#e2c98a" stroke="#cdaf68" stroke-width="0.5"/><circle cx="576" cy="98" r="2" fill="#e2c98a" stroke="#cdaf68" stroke-width="0.5"/><circle cx="576" cy="110" r="2" fill="#e2c98a" stroke="#cdaf68" stroke-width="0.5"/><circle cx="576" cy="122" r="2" fill="#e2c98a" stroke="#cdaf68" stroke-width="0.5"/><circle cx="576" cy="134" r="2" fill="#e2c98a" stroke="#cdaf68" stroke-width="0.5"/><circle cx="576" cy="146" r="2" fill="#e2c98a" stroke="#cdaf68" stroke-width="0.5"/><circle cx="576" cy="158" r="2" fill="#e2c98a" stroke="#cdaf68" stroke-width="0.5"/><circle cx="576" cy="170" r="2" fill="#e2c98a" stroke="#cdaf68" stroke-width="0.5"/><circle cx="576" cy="182" r="2" fill="#e2c98a" stroke="#cdaf68" stroke-width="0.5"/><circle cx="576" cy="194" r="2" fill="#e2c98a" stroke="#cdaf68" stroke-width="0.5"/><circle cx="576" cy="206" r="2" fill="#e2c98a" stroke="#cdaf68" stroke-width="0.5"/><circle cx="576" cy="218" r="2" fill="#e2c98a" stroke="#cdaf68" stroke-width="0.5"/><circle cx="576" cy="230" r="2" fill="#e2c98a" stroke="#cdaf68" stroke-width="0.5"/><circle cx="576" cy="242" r="2" fill="#e2c98a" stroke="#cdaf68" stroke-width="0.5"/><circle cx="576" cy="254" r="2" fill="#e2c98a" stroke="#cdaf68" stroke-width="0.5"/><circle cx="576" cy="266" r="2" fill="#e2c98a" stroke="#cdaf68" stroke-width="0.5"/><circle cx="576" cy="278" r="2" fill="#e2c98a" stroke="#cdaf68" stroke-width="0.5"/>

  <!-- Outer ticket outline -->
  <rect x="14" y="14" width="692" height="272" rx="6" ry="6" fill="none" stroke="#2b1c0b" stroke-width="1" opacity="0.4"/>
</svg>