<svg xmlns="http://www.w3.org/2000/svg" viewBox="0 0 720 300" width="720" height="300">
  <defs>
    <linearGradient id="foil" x1="0" y1="0" x2="1" y2="1">
      <stop offset="0%" stop-color="#b06b6f" stop-opacity="0.9"/>
      <stop offset="50%" stop-color="#e7d2cf" stop-opacity="0.4"/>
      <stop offset="100%" stop-color="#b06b6f" stop-opacity="0.9"/>
    </linearGradient>
    <clipPath id="ticket">
      <rect x="14" y="14" width="692" height="272" rx="6" ry="6"/>
    </clipPath>
  </defs>

  <!-- Outer canvas -->
  <rect width="720" height="300" fill="#1a1a1a"/>

  <!-- Ticket body -->
  <g clip-path="url(#ticket)">
    <rect x="14" y="14" width="692" height="272" fill="#e7d2cf"/>
    <circle cx="551.7" cy="219.1" r="0.8" fill="#cfaba6" opacity="0.35"/><circle cx="558.9" cy="64.4" r="0.4" fill="#cfaba6" opacity="0.35"/><circle cx="205.4" cy="152.2" r="0.4" fill="#cfaba6" opacity="0.35"/><circle cx="345.4" cy="35.4" r="0.4" fill="#cfaba6" opacity="0.35"/><circle cx="51.2" cy="37.7" r="0.4" fill="#cfaba6" opacity="0.35"/><circle cx="482.9" cy="183.9" r="0.4" fill="#cfaba6" opacity="0.35"/><circle cx="244.5" cy="12.3" r="0.4" fill="#cfaba6" opacity="0.35"/><circle cx="281.9" cy="223.4" r="0.4" fill="#cfaba6" opacity="0.35"/><circle cx="408.4" cy="32.8" r="0.4" fill="#cfaba6" opacity="0.35"/><circle cx="646.4" cy="11.8" r="0.4" fill="#cfaba6" opacity="0.35"/><circle cx="695.8" cy="152.3" r="0.4" fill="#cfaba6" opacity="0.35"/><circle cx="109.1" cy="195.1" r="0.4" fill="#cfaba6" opacity="0.35"/><circle cx="73.5" cy="21.1" r="0.4" fill="#cfaba6" opacity="0.35"/><circle cx="193.1" cy="295.7" r="0.4" fill="#cfaba6" opacity="0.35"/><circle cx="580.4" cy="296.1" r="0.4" fill="#cfaba6" opacity="0.35"/><circle cx="454.0" cy="282.4" r="0.4" fill="#cfaba6" opacity="0.35"/><circle cx="693.3" cy="170.2" r="0.8" fill="#cfaba6" opacity="0.35"/><circle cx="227.4" cy="239.5" r="0.4" fill="#cfaba6" opacity="0.35"/><circle cx="712.0" cy="33.1" r="0.4" fill="#cfaba6" opacity="0.35"/><circle cx="166.5" cy="240.0" r="0.4" fill="#cfaba6" opacity="0.35"/><circle cx="537.6" cy="188.1" r="0.4" fill="#cfaba6" opacity="0.35"/><circle cx="134.1" cy="158.2" r="0.4" fill="#cfaba6" opacity="0.35"/><circle cx="465.5" cy="34.2" r="0.8" fill="#cfaba6" opacity="0.35"/><circle cx="617.5" cy="266.8" r="0.4" fill="#cfaba6" opacity="0.35"/><circle cx="221.0" cy="203.6" r="0.4" fill="#cfaba6" opacity="0.35"/><circle cx="588.6" cy="218.5" r="0.4" fill="#cfaba6" opacity="0.35"/><circle cx="437.7" cy="288.4" r="0.4" fill="#cfaba6" opacity="0.35"/><circle cx="117.5" cy="70.0" r="0.4" fill="#cfaba6" opacity="0.35"/><circle cx="711.1" cy="161.4" r="0.4" fill="#cfaba6" opacity="0.35"/><circle cx="406.2" cy="42.9" r="0.4" fill="#cfaba6" opacity="0.35"/><circle cx="652.5" cy="88.3" r="0.4" fill="#cfaba6" opacity="0.35"/><circle cx="652.9" cy="172.8" r="0.4" fill="#cfaba6" opacity="0.35"/><circle cx="486.1" cy="118.7" r="0.4" fill="#cfaba6" opacity="0.35"/><circle cx="444.5" cy="84.2" r="0.4" fill="#cfaba6" opacity="0.35"/><circle cx="273.9" cy="115.4" r="0.4" fill="#cfaba6" opacity="0.35"/><circle cx="697.3" cy="8.1" r="0.4" fill="#cfaba6" opacity="0.35"/><circle cx="39.6" cy="251.7" r="0.4" fill="#cfaba6" opacity="0.35"/><circle cx="34.0" cy="7.5" r="0.4" fill="#cfaba6" opacity="0.35"/><circle cx="402.9" cy="168.0" r="0.4" fill="#cfaba6" opacity="0.35"/><circle cx="583.3" cy="202.0" r="0.4" fill="#cfaba6" opacity="0.35"/><circle cx="250.8" cy="75.7" r="0.4" fill="#cfaba6" opacity="0.35"/><circle cx="466.7" cy="76.5" r="0.4" fill="#cfaba6" opacity="0.35"/><circle cx="277.4" cy="209.4" r="0.4" fill="#cfaba6" opacity="0.35"/><circle cx="235.2" cy="184.4" r="0.4" fill="#cfaba6" opacity="0.35"/><circle cx="159.8" cy="13.0" r="0.4" fill="#cfaba6" opacity="0.35"/><circle cx="434.5" cy="40.1" r="0.4" fill="#cfaba6" opacity="0.35"/><circle cx="474.2" cy="63.2" r="0.4" fill="#cfaba6" opacity="0.35"/><circle cx="436.0" cy="237.7" r="0.4" fill="#cfaba6" opacity="0.35"/><circle cx="531.3" cy="32.0" r="0.4" fill="#cfaba6" opacity="0.35"/><circle cx="18.8" cy="148.2" r="0.4" fill="#cfaba6" opacity="0.35"/><circle cx="369.1" cy="183.2" r="0.4" fill="#cfaba6" opacity="0.35"/><circle cx="342.3" cy="194.9" r="0.4" fill="#cfaba6" opacity="0.35"/><circle cx="616.3" cy="288.2" r="0.4" fill="#cfaba6" opacity="0.35"/><circle cx="685.0" cy="27.4" r="0.4" fill="#cfaba6" opacity="0.35"/><circle cx="475.7" cy="56.3" r="0.4" fill="#cfaba6" opacity="0.35"/><circle cx="60.9" cy="71.0" r="0.4" fill="#cfaba6" opacity="0.35"/><circle cx="602.9" cy="80.8" r="0.4" fill="#cfaba6" opacity="0.35"/><circle cx="569.6" cy="64.0" r="0.4" fill="#cfaba6" opacity="0.35"/><circle cx="498.4" cy="209.5" r="0.8" fill="#cfaba6" opacity="0.35"/><circle cx="652.0" cy="115.5" r="0.4" fill="#cfaba6" opacity="0.35"/><circle cx="139.0" cy="70.6" r="0.4" fill="#cfaba6" opacity="0.35"/><circle cx="61.4" cy="286.8" r="0.8" fill="#cfaba6" opacity="0.35"/><circle cx="122.5" cy="194.1" r="0.4" fill="#cfaba6" opacity="0.35"/><circle cx="257.2" cy="47.2" r="0.4" fill="#cfaba6" opacity="0.35"/><circle cx="319.5" cy="72.2" r="0.4" fill="#cfaba6" opacity="0.35"/><circle cx="440.2" cy="76.2" r="0.4" fill="#cfaba6" opacity="0.35"/><circle cx="269.1" cy="101.3" r="0.4" fill="#cfaba6" opacity="0.35"/><circle cx="594.1" cy="207.5" r="0.4" fill="#cfaba6" opacity="0.35"/><circle cx="252.7" cy="45.8" r="0.4" fill="#cfaba6" opacity="0.35"/><circle cx="109.2" cy="80.6" r="0.4" fill="#cfaba6" opacity="0.35"/><circle cx="685.6" cy="295.9" r="0.4" fill="#cfaba6" opacity="0.35"/><circle cx="605.0" cy="57.1" r="0.4" fill="#cfaba6" opacity="0.35"/><circle cx="463.7" cy="286.8" r="0.4" fill="#cfaba6" opacity="0.35"/><circle cx="381.8" cy="127.7" r="0.4" fill="#cfaba6" opacity="0.35"/><circle cx="379.0" cy="78.4" r="0.4" fill="#cfaba6" opacity="0.35"/><circle cx="281.3" cy="111.8" r="0.4" fill="#cfaba6" opacity="0.35"/><circle cx="426.1" cy="119.3" r="0.4" fill="#cfaba6" opacity="0.35"/><circle cx="621.5" cy="260.5" r="0.4" fill="#cfaba6" opacity="0.35"/><circle cx="356.0" cy="58.8" r="0.4" fill="#cfaba6" opacity="0.35"/><circle cx="543.6" cy="243.1" r="0.4" fill="#cfaba6" opacity="0.35"/><circle cx="106.1" cy="241.6" r="0.4" fill="#cfaba6" opacity="0.35"/><circle cx="230.1" cy="43.8" r="0.4" fill="#cfaba6" opacity="0.35"/><circle cx="139.9" cy="49.8" r="0.4" fill="#cfaba6" opacity="0.35"/><circle cx="114.2" cy="120.6" r="0.4" fill="#cfaba6" opacity="0.35"/><circle cx="711.7" cy="267.0" r="0.4" fill="#cfaba6" opacity="0.35"/><circle cx="165.2" cy="179.2" r="0.4" fill="#cfaba6" opacity="0.35"/><circle cx="559.7" cy="34.1" r="0.4" fill="#cfaba6" opacity="0.35"/><circle cx="43.2" cy="166.9" r="0.4" fill="#cfaba6" opacity="0.35"/><circle cx="57.9" cy="209.3" r="0.4" fill="#cfaba6" opacity="0.35"/><circle cx="134.8" cy="59.0" r="0.4" fill="#cfaba6" opacity="0.35"/><circle cx="118.8" cy="88.4" r="0.4" fill="#cfaba6" opacity="0.35"/><circle cx="564.0" cy="144.2" r="0.8" fill="#cfaba6" opacity="0.35"/><circle cx="429.3" cy="19.8" r="0.4" fill="#cfaba6" opacity="0.35"/><circle cx="193.1" cy="36.3" r="0.4" fill="#cfaba6" opacity="0.35"/><circle cx="43.5" cy="207.7" r="0.4" fill="#cfaba6" opacity="0.35"/><circle cx="83.7" cy="68.1" r="0.4" fill="#cfaba6" opacity="0.35"/><circle cx="432.3" cy="61.1" r="0.4" fill="#cfaba6" opacity="0.35"/><circle cx="385.3" cy="184.2" r="0.4" fill="#cfaba6" opacity="0.35"/><circle cx="489.6" cy="193.2" r="0.4" fill="#cfaba6" opacity="0.35"/><circle cx="306.3" cy="225.6" r="0.4" fill="#cfaba6" opacity="0.35"/><circle cx="494.0" cy="285.7" r="0.4" fill="#cfaba6" opacity="0.35"/><circle cx="58.0" cy="81.1" r="0.4" fill="#cfaba6" opacity="0.35"/><circle cx="418.2" cy="36.5" r="0.4" fill="#cfaba6" opacity="0.35"/><circle cx="636.9" cy="65.7" r="0.4" fill="#cfaba6" opacity="0.35"/><circle cx="392.2" cy="230.3" r="0.4" fill="#cfaba6" opacity="0.35"/><circle cx="143.2" cy="51.3" r="0.4" fill="#cfaba6" opacity="0.35"/><circle cx="77.5" cy="223.7" r="0.4" fill="#cfaba6" opacity="0.35"/><circle cx="409.6" cy="136.5" r="0.4" fill="#cfaba6" opacity="0.35"/><circle cx="383.1" cy="72.7" r="0.4" fill="#cfaba6" opacity="0.35"/><circle cx="324.0" cy="289.9" r="0.4" fill="#cfaba6" opacity="0.35"/><circle cx="429.8" cy="294.2" r="0.4" fill="#cfaba6" opacity="0.35"/><circle cx="236.1" cy="43.1" r="0.4" fill="#cfaba6" opacity="0.35"/><circle cx="114.6" cy="276.6" r="0.4" fill="#cfaba6" opacity="0.35"/><circle cx="61.4" cy="261.0" r="0.4" fill="#cfaba6" opacity="0.35"/><circle cx="81.5" cy="23.7" r="0.4" fill="#cfaba6" opacity="0.35"/><circle cx="437.5" cy="31.0" r="0.4" fill="#cfaba6" opacity="0.35"/><circle cx="352.4" cy="43.4" r="0.4" fill="#cfaba6" opacity="0.35"/><circle cx="436.3" cy="162.3" r="0.8" fill="#cfaba6" opacity="0.35"/><circle cx="366.1" cy="173.1" r="0.4" fill="#cfaba6" opacity="0.35"/><circle cx="314.2" cy="261.6" r="0.4" fill="#cfaba6" opacity="0.35"/><circle cx="96.8" cy="260.0" r="0.4" fill="#cfaba6" opacity="0.35"/><circle cx="703.1" cy="217.6" r="0.4" fill="#cfaba6" opacity="0.35"/><circle cx="288.5" cy="194.7" r="0.4" fill="#cfaba6" opacity="0.35"/><circle cx="108.0" cy="173.3" r="0.4" fill="#cfaba6" opacity="0.35"/><circle cx="680.1" cy="161.4" r="0.8" fill="#cfaba6" opacity="0.35"/><circle cx="410.9" cy="297.6" r="0.4" fill="#cfaba6" opacity="0.35"/><circle cx="510.4" cy="2.4" r="0.4" fill="#cfaba6" opacity="0.35"/><circle cx="250.7" cy="48.6" r="0.4" fill="#cfaba6" opacity="0.35"/><circle cx="602.4" cy="167.1" r="0.4" fill="#cfaba6" opacity="0.35"/><circle cx="462.6" cy="113.7" r="0.4" fill="#cfaba6" opacity="0.35"/><circle cx="252.2" cy="15.1" r="0.4" fill="#cfaba6" opacity="0.35"/><circle cx="185.0" cy="43.1" r="0.4" fill="#cfaba6" opacity="0.35"/><circle cx="667.3" cy="268.4" r="0.4" fill="#cfaba6" opacity="0.35"/><circle cx="25.4" cy="175.1" r="0.4" fill="#cfaba6" opacity="0.35"/><circle cx="682.3" cy="17.9" r="0.4" fill="#cfaba6" opacity="0.35"/><circle cx="203.3" cy="237.4" r="0.4" fill="#cfaba6" opacity="0.35"/><circle cx="513.6" cy="168.1" r="0.4" fill="#cfaba6" opacity="0.35"/><circle cx="429.9" cy="66.7" r="0.4" fill="#cfaba6" opacity="0.35"/><circle cx="186.7" cy="110.5" r="0.4" fill="#cfaba6" opacity="0.35"/><circle cx="718.3" cy="189.3" r="0.4" fill="#cfaba6" opacity="0.35"/><circle cx="616.4" cy="91.1" r="0.4" fill="#cfaba6" opacity="0.35"/><circle cx="141.1" cy="47.2" r="0.4" fill="#cfaba6" opacity="0.35"/><circle cx="190.2" cy="225.3" r="0.4" fill="#cfaba6" opacity="0.35"/><circle cx="638.1" cy="229.8" r="0.4" fill="#cfaba6" opacity="0.35"/><circle cx="452.6" cy="79.2" r="0.4" fill="#cfaba6" opacity="0.35"/><circle cx="709.2" cy="77.9" r="0.4" fill="#cfaba6" opacity="0.35"/><circle cx="528.4" cy="123.2" r="0.4" fill="#cfaba6" opacity="0.35"/><circle cx="613.4" cy="181.2" r="0.8" fill="#cfaba6" opacity="0.35"/><circle cx="137.1" cy="198.4" r="0.4" fill="#cfaba6" opacity="0.35"/><circle cx="594.7" cy="86.7" r="0.4" fill="#cfaba6" opacity="0.35"/><circle cx="73.9" cy="131.3" r="0.4" fill="#cfaba6" opacity="0.35"/><circle cx="447.7" cy="265.4" r="0.4" fill="#cfaba6" opacity="0.35"/><circle cx="714.0" cy="80.5" r="0.4" fill="#cfaba6" opacity="0.35"/><circle cx="450.2" cy="180.4" r="0.4" fill="#cfaba6" opacity="0.35"/><circle cx="190.0" cy="195.8" r="0.4" fill="#cfaba6" opacity="0.35"/><circle cx="298.3" cy="252.6" r="0.4" fill="#cfaba6" opacity="0.35"/><circle cx="541.2" cy="172.8" r="0.4" fill="#cfaba6" opacity="0.35"/><circle cx="636.5" cy="161.7" r="0.8" fill="#cfaba6" opacity="0.35"/><circle cx="439.4" cy="164.4" r="0.4" fill="#cfaba6" opacity="0.35"/><circle cx="595.6" cy="161.5" r="0.4" fill="#cfaba6" opacity="0.35"/><circle cx="433.7" cy="29.8" r="0.8" fill="#cfaba6" opacity="0.35"/><circle cx="285.4" cy="60.6" r="0.4" fill="#cfaba6" opacity="0.35"/><circle cx="488.5" cy="3.7" r="0.4" fill="#cfaba6" opacity="0.35"/><circle cx="190.0" cy="36.1" r="0.4" fill="#cfaba6" opacity="0.35"/><circle cx="463.9" cy="52.3" r="0.4" fill="#cfaba6" opacity="0.35"/><circle cx="39.9" cy="99.2" r="0.4" fill="#cfaba6" opacity="0.35"/><circle cx="370.2" cy="118.3" r="0.4" fill="#cfaba6" opacity="0.35"/><circle cx="298.8" cy="224.1" r="0.4" fill="#cfaba6" opacity="0.35"/><circle cx="404.2" cy="290.3" r="0.4" fill="#cfaba6" opacity="0.35"/><circle cx="2.2" cy="51.5" r="0.4" fill="#cfaba6" opacity="0.35"/><circle cx="127.9" cy="224.7" r="0.4" fill="#cfaba6" opacity="0.35"/><circle cx="385.8" cy="140.3" r="0.8" fill="#cfaba6" opacity="0.35"/><circle cx="585.7" cy="82.7" r="0.4" fill="#cfaba6" opacity="0.35"/><circle cx="275.8" cy="285.4" r="0.4" fill="#cfaba6" opacity="0.35"/><circle cx="695.0" cy="126.2" r="0.4" fill="#cfaba6" opacity="0.35"/><circle cx="715.5" cy="232.0" r="0.4" fill="#cfaba6" opacity="0.35"/><circle cx="385.8" cy="150.8" r="0.4" fill="#cfaba6" opacity="0.35"/><circle cx="181.5" cy="97.1" r="0.4" fill="#cfaba6" opacity="0.35"/><circle cx="657.6" cy="193.2" r="0.8" fill="#cfaba6" opacity="0.35"/><circle cx="298.3" cy="138.2" r="0.4" fill="#cfaba6" opacity="0.35"/><circle cx="294.5" cy="215.1" r="0.4" fill="#cfaba6" opacity="0.35"/><circle cx="172.1" cy="22.4" r="0.4" fill="#cfaba6" opacity="0.35"/><circle cx="60.9" cy="272.0" r="0.4" fill="#cfaba6" opacity="0.35"/><circle cx="525.3" cy="50.5" r="0.4" fill="#cfaba6" opacity="0.35"/><circle cx="651.3" cy="176.7" r="0.4" fill="#cfaba6" opacity="0.35"/><circle cx="522.0" cy="73.3" r="0.4" fill="#cfaba6" opacity="0.35"/><circle cx="36.3" cy="38.6" r="0.4" fill="#cfaba6" opacity="0.35"/><circle cx="626.9" cy="261.6" r="0.4" fill="#cfaba6" opacity="0.35"/><circle cx="565.9" cy="173.7" r="0.4" fill="#cfaba6" opacity="0.35"/><circle cx="229.0" cy="35.3" r="0.4" fill="#cfaba6" opacity="0.35"/><circle cx="450.8" cy="41.5" r="0.4" fill="#cfaba6" opacity="0.35"/><circle cx="254.6" cy="145.6" r="0.4" fill="#cfaba6" opacity="0.35"/><circle cx="555.2" cy="58.9" r="0.4" fill="#cfaba6" opacity="0.35"/><circle cx="318.6" cy="59.9" r="0.4" fill="#cfaba6" opacity="0.35"/><circle cx="691.9" cy="82.6" r="0.4" fill="#cfaba6" opacity="0.35"/><circle cx="460.6" cy="195.4" r="0.4" fill="#cfaba6" opacity="0.35"/><circle cx="657.9" cy="177.6" r="0.4" fill="#cfaba6" opacity="0.35"/><circle cx="55.3" cy="5.9" r="0.4" fill="#cfaba6" opacity="0.35"/><circle cx="689.7" cy="250.4" r="0.4" fill="#cfaba6" opacity="0.35"/><circle cx="266.1" cy="91.7" r="0.4" fill="#cfaba6" opacity="0.35"/><circle cx="268.2" cy="164.8" r="0.4" fill="#cfaba6" opacity="0.35"/><circle cx="85.6" cy="139.3" r="0.4" fill="#cfaba6" opacity="0.35"/><circle cx="77.4" cy="50.3" r="0.4" fill="#cfaba6" opacity="0.35"/><circle cx="154.7" cy="50.0" r="0.4" fill="#cfaba6" opacity="0.35"/><circle cx="532.7" cy="196.7" r="0.4" fill="#cfaba6" opacity="0.35"/><circle cx="523.3" cy="226.4" r="0.4" fill="#cfaba6" opacity="0.35"/><circle cx="152.4" cy="78.9" r="0.4" fill="#cfaba6" opacity="0.35"/><circle cx="120.6" cy="35.0" r="0.4" fill="#cfaba6" opacity="0.35"/><circle cx="108.4" cy="274.6" r="0.4" fill="#cfaba6" opacity="0.35"/><circle cx="644.6" cy="241.1" r="0.4" fill="#cfaba6" opacity="0.35"/><circle cx="646.1" cy="239.2" r="0.8" fill="#cfaba6" opacity="0.35"/><circle cx="440.5" cy="87.1" r="0.4" fill="#cfaba6" opacity="0.35"/><circle cx="619.2" cy="246.8" r="0.4" fill="#cfaba6" opacity="0.35"/><circle cx="578.8" cy="268.9" r="0.4" fill="#cfaba6" opacity="0.35"/><circle cx="633.3" cy="255.2" r="0.4" fill="#cfaba6" opacity="0.35"/><circle cx="413.9" cy="91.6" r="0.4" fill="#cfaba6" opacity="0.35"/><circle cx="537.7" cy="280.8" r="0.4" fill="#cfaba6" opacity="0.35"/><circle cx="615.4" cy="231.6" r="0.4" fill="#cfaba6" opacity="0.35"/><circle cx="262.5" cy="282.1" r="0.4" fill="#cfaba6" opacity="0.35"/><circle cx="284.9" cy="222.0" r="0.4" fill="#cfaba6" opacity="0.35"/>
    
    <g opacity="0.06">
      <g transform="rotate(22 360 150)">
        <rect x="-100" y="-50" width="40" height="400" fill="#3a1a1d"/><rect x="0" y="-50" width="40" height="400" fill="#3a1a1d"/><rect x="100" y="-50" width="40" height="400" fill="#3a1a1d"/><rect x="200" y="-50" width="40" height="400" fill="#3a1a1d"/><rect x="300" y="-50" width="40" height="400" fill="#3a1a1d"/><rect x="400" y="-50" width="40" height="400" fill="#3a1a1d"/><rect x="500" y="-50" width="40" height="400" fill="#3a1a1d"/><rect x="600" y="-50" width="40" height="400" fill="#3a1a1d"/><rect x="700" y="-50" width="40" height="400" fill="#3a1a1d"/>
      </g>
    </g>
  

    <!-- Double-line top border -->
    <line x1="34" y1="32" x2="686" y2="32" stroke="#3a1a1d" stroke-width="1.2"/>
    <line x1="34" y1="36" x2="686" y2="36" stroke="#3a1a1d" stroke-width="0.5"/>
    <line x1="34" y1="264" x2="686" y2="264" stroke="#3a1a1d" stroke-width="0.5"/>
    <line x1="34" y1="268" x2="686" y2="268" stroke="#3a1a1d" stroke-width="1.2"/>

    <!-- Header label -->
    <text x="46" y="62" font-family="Georgia, 'Times New Roman', serif" font-size="11" letter-spacing="3" fill="#3a1a1d">AXIOM · BASE · ERC-8257</text>

    <!-- Main title -->
    <text x="46" y="124" font-family="Georgia, 'Times New Roman', serif" font-size="46" font-weight="700" fill="#3a1a1d">AXIOM</text>
    <text x="46" y="164" font-family="Georgia, 'Times New Roman', serif" font-size="34" font-style="italic" fill="#7a3037">tool pass</text>

    <!-- Tagline -->
    <text x="46" y="196" font-family="Georgia, serif" font-size="10" letter-spacing="4" fill="#3a1a1d">ADMIT ONE · BYPASS x402 · LIFETIME</text>

    <!-- Serial -->
    <text x="46" y="248" font-family="Courier, monospace" font-size="11" letter-spacing="2" fill="#3a1a1d">№ 0016 / 1000</text>

    <!-- Sigil(s) — right side always, plus mirrored left side if Twin -->
    
    <g transform="rotate(327 516 226)">
      <circle cx="516" cy="226" r="32" fill="none" stroke="#3a1a1d" stroke-width="1.5"/>
      <circle cx="516" cy="226" r="29.44" fill="none" stroke="#3a1a1d" stroke-width="0.4" stroke-dasharray="2 2"/>
      
      <line x1="516" y1="201.04" x2="516" y2="250.96" stroke="#3a1a1d" stroke-width="1"/>
      <line x1="491.04" y1="226" x2="540.96" y2="226" stroke="#3a1a1d" stroke-width="1"/>
      <line x1="498.528" y1="208.528" x2="533.472" y2="243.472" stroke="#3a1a1d" stroke-width="0.5"/>
      <line x1="533.472" y1="208.528" x2="498.528" y2="243.472" stroke="#3a1a1d" stroke-width="0.5"/>
      <circle cx="516" cy="226" r="7.04" fill="#7a3037"/>
    
    </g>
  
    

    <!-- Stub background tint -->
    <rect x="576" y="14" width="130" height="272" fill="#cfaba6" opacity="0.45"/>

    <!-- Foil strip on stub -->
    <rect x="588" y="34" width="106" height="6" fill="url(#foil)"/>

    <!-- Stub rotated text -->
    <g transform="translate(641, 150) rotate(-90)">
      <text text-anchor="middle" font-family="Georgia, serif" font-size="20" font-weight="700" letter-spacing="6" fill="#3a1a1d">AXIOM TOOL PASS</text>
      <text y="22" text-anchor="middle" font-family="Courier, monospace" font-size="9" letter-spacing="3" fill="#3a1a1d">№ 0016 / 1000</text>
    </g>
  </g>

  <!-- Perforation -->
  <circle cx="576" cy="26" r="2" fill="#e7d2cf" stroke="#cfaba6" stroke-width="0.5"/><circle cx="576" cy="38" r="2" fill="#e7d2cf" stroke="#cfaba6" stroke-width="0.5"/><circle cx="576" cy="50" r="2" fill="#e7d2cf" stroke="#cfaba6" stroke-width="0.5"/><circle cx="576" cy="62" r="2" fill="#e7d2cf" stroke="#cfaba6" stroke-width="0.5"/><circle cx="576" cy="74" r="2" fill="#e7d2cf" stroke="#cfaba6" stroke-width="0.5"/><circle cx="576" cy="86" r="2" fill="#e7d2cf" stroke="#cfaba6" stroke-width="0.5"/><circle cx="576" cy="98" r="2" fill="#e7d2cf" stroke="#cfaba6" stroke-width="0.5"/><circle cx="576" cy="110" r="2" fill="#e7d2cf" stroke="#cfaba6" stroke-width="0.5"/><circle cx="576" cy="122" r="2" fill="#e7d2cf" stroke="#cfaba6" stroke-width="0.5"/><circle cx="576" cy="134" r="2" fill="#e7d2cf" stroke="#cfaba6" stroke-width="0.5"/><circle cx="576" cy="146" r="2" fill="#e7d2cf" stroke="#cfaba6" stroke-width="0.5"/><circle cx="576" cy="158" r="2" fill="#e7d2cf" stroke="#cfaba6" stroke-width="0.5"/><circle cx="576" cy="170" r="2" fill="#e7d2cf" stroke="#cfaba6" stroke-width="0.5"/><circle cx="576" cy="182" r="2" fill="#e7d2cf" stroke="#cfaba6" stroke-width="0.5"/><circle cx="576" cy="194" r="2" fill="#e7d2cf" stroke="#cfaba6" stroke-width="0.5"/><circle cx="576" cy="206" r="2" fill="#e7d2cf" stroke="#cfaba6" stroke-width="0.5"/><circle cx="576" cy="218" r="2" fill="#e7d2cf" stroke="#cfaba6" stroke-width="0.5"/><circle cx="576" cy="230" r="2" fill="#e7d2cf" stroke="#cfaba6" stroke-width="0.5"/><circle cx="576" cy="242" r="2" fill="#e7d2cf" stroke="#cfaba6" stroke-width="0.5"/><circle cx="576" cy="254" r="2" fill="#e7d2cf" stroke="#cfaba6" stroke-width="0.5"/><circle cx="576" cy="266" r="2" fill="#e7d2cf" stroke="#cfaba6" stroke-width="0.5"/><circle cx="576" cy="278" r="2" fill="#e7d2cf" stroke="#cfaba6" stroke-width="0.5"/>

  <!-- Outer ticket outline -->
  <rect x="14" y="14" width="692" height="272" rx="6" ry="6" fill="none" stroke="#3a1a1d" stroke-width="1" opacity="0.4"/>
</svg>