<svg xmlns="http://www.w3.org/2000/svg" viewBox="0 0 720 300" width="720" height="300">
  <defs>
    <linearGradient id="foil" x1="0" y1="0" x2="1" y2="1">
      <stop offset="0%" stop-color="#7d9b62" stop-opacity="0.9"/>
      <stop offset="50%" stop-color="#ece5d0" stop-opacity="0.4"/>
      <stop offset="100%" stop-color="#7d9b62" stop-opacity="0.9"/>
    </linearGradient>
    <clipPath id="ticket">
      <rect x="14" y="14" width="692" height="272" rx="6" ry="6"/>
    </clipPath>
  </defs>

  <!-- Outer canvas -->
  <rect width="720" height="300" fill="#1a1a1a"/>

  <!-- Ticket body -->
  <g clip-path="url(#ticket)">
    <rect x="14" y="14" width="692" height="272" fill="#ece5d0"/>
    <circle cx="630.8" cy="142.0" r="0.4" fill="#d4c9a8" opacity="0.35"/><circle cx="92.7" cy="205.5" r="0.4" fill="#d4c9a8" opacity="0.35"/><circle cx="360.5" cy="84.8" r="0.4" fill="#d4c9a8" opacity="0.35"/><circle cx="500.6" cy="98.1" r="0.4" fill="#d4c9a8" opacity="0.35"/><circle cx="410.8" cy="136.0" r="0.4" fill="#d4c9a8" opacity="0.35"/><circle cx="400.3" cy="179.2" r="0.4" fill="#d4c9a8" opacity="0.35"/><circle cx="255.9" cy="38.8" r="0.4" fill="#d4c9a8" opacity="0.35"/><circle cx="61.1" cy="103.6" r="0.4" fill="#d4c9a8" opacity="0.35"/><circle cx="383.1" cy="112.1" r="0.4" fill="#d4c9a8" opacity="0.35"/><circle cx="684.2" cy="229.5" r="0.4" fill="#d4c9a8" opacity="0.35"/><circle cx="149.7" cy="214.1" r="0.4" fill="#d4c9a8" opacity="0.35"/><circle cx="537.2" cy="130.6" r="0.4" fill="#d4c9a8" opacity="0.35"/><circle cx="603.1" cy="222.2" r="0.4" fill="#d4c9a8" opacity="0.35"/><circle cx="190.5" cy="7.3" r="0.8" fill="#d4c9a8" opacity="0.35"/><circle cx="363.2" cy="261.4" r="0.4" fill="#d4c9a8" opacity="0.35"/><circle cx="553.7" cy="255.9" r="0.8" fill="#d4c9a8" opacity="0.35"/><circle cx="386.3" cy="236.6" r="0.8" fill="#d4c9a8" opacity="0.35"/><circle cx="478.5" cy="168.3" r="0.4" fill="#d4c9a8" opacity="0.35"/><circle cx="314.4" cy="230.8" r="0.4" fill="#d4c9a8" opacity="0.35"/><circle cx="189.1" cy="298.6" r="0.4" fill="#d4c9a8" opacity="0.35"/><circle cx="459.9" cy="56.9" r="0.4" fill="#d4c9a8" opacity="0.35"/><circle cx="709.7" cy="47.6" r="0.4" fill="#d4c9a8" opacity="0.35"/><circle cx="117.6" cy="145.4" r="0.8" fill="#d4c9a8" opacity="0.35"/><circle cx="543.6" cy="235.1" r="0.4" fill="#d4c9a8" opacity="0.35"/><circle cx="464.1" cy="70.2" r="0.4" fill="#d4c9a8" opacity="0.35"/><circle cx="288.4" cy="55.0" r="0.4" fill="#d4c9a8" opacity="0.35"/><circle cx="214.8" cy="62.5" r="0.4" fill="#d4c9a8" opacity="0.35"/><circle cx="304.4" cy="265.9" r="0.4" fill="#d4c9a8" opacity="0.35"/><circle cx="416.7" cy="279.4" r="0.4" fill="#d4c9a8" opacity="0.35"/><circle cx="140.1" cy="157.9" r="0.4" fill="#d4c9a8" opacity="0.35"/><circle cx="477.5" cy="31.7" r="0.4" fill="#d4c9a8" opacity="0.35"/><circle cx="441.3" cy="293.7" r="0.4" fill="#d4c9a8" opacity="0.35"/><circle cx="218.2" cy="250.1" r="0.4" fill="#d4c9a8" opacity="0.35"/><circle cx="371.1" cy="55.5" r="0.8" fill="#d4c9a8" opacity="0.35"/><circle cx="9.9" cy="102.5" r="0.4" fill="#d4c9a8" opacity="0.35"/><circle cx="249.1" cy="298.8" r="0.4" fill="#d4c9a8" opacity="0.35"/><circle cx="191.6" cy="113.7" r="0.4" fill="#d4c9a8" opacity="0.35"/><circle cx="141.9" cy="33.5" r="0.4" fill="#d4c9a8" opacity="0.35"/><circle cx="318.4" cy="224.3" r="0.4" fill="#d4c9a8" opacity="0.35"/><circle cx="545.7" cy="226.7" r="0.4" fill="#d4c9a8" opacity="0.35"/><circle cx="243.1" cy="131.0" r="0.4" fill="#d4c9a8" opacity="0.35"/><circle cx="399.8" cy="22.4" r="0.4" fill="#d4c9a8" opacity="0.35"/><circle cx="449.2" cy="140.2" r="0.4" fill="#d4c9a8" opacity="0.35"/><circle cx="566.8" cy="115.4" r="0.4" fill="#d4c9a8" opacity="0.35"/><circle cx="438.5" cy="61.9" r="0.4" fill="#d4c9a8" opacity="0.35"/><circle cx="291.9" cy="24.8" r="0.8" fill="#d4c9a8" opacity="0.35"/><circle cx="175.6" cy="234.2" r="0.4" fill="#d4c9a8" opacity="0.35"/><circle cx="621.5" cy="166.6" r="0.4" fill="#d4c9a8" opacity="0.35"/><circle cx="423.2" cy="58.1" r="0.4" fill="#d4c9a8" opacity="0.35"/><circle cx="297.2" cy="241.0" r="0.4" fill="#d4c9a8" opacity="0.35"/><circle cx="707.6" cy="235.1" r="0.4" fill="#d4c9a8" opacity="0.35"/><circle cx="615.8" cy="35.6" r="0.4" fill="#d4c9a8" opacity="0.35"/><circle cx="28.8" cy="242.9" r="0.4" fill="#d4c9a8" opacity="0.35"/><circle cx="375.7" cy="74.6" r="0.4" fill="#d4c9a8" opacity="0.35"/><circle cx="115.5" cy="1.0" r="0.4" fill="#d4c9a8" opacity="0.35"/><circle cx="348.7" cy="74.2" r="0.4" fill="#d4c9a8" opacity="0.35"/><circle cx="389.4" cy="264.8" r="0.4" fill="#d4c9a8" opacity="0.35"/><circle cx="166.1" cy="176.3" r="0.4" fill="#d4c9a8" opacity="0.35"/><circle cx="257.0" cy="192.6" r="0.4" fill="#d4c9a8" opacity="0.35"/><circle cx="666.3" cy="230.7" r="0.4" fill="#d4c9a8" opacity="0.35"/><circle cx="114.8" cy="228.3" r="0.4" fill="#d4c9a8" opacity="0.35"/><circle cx="640.8" cy="268.9" r="0.4" fill="#d4c9a8" opacity="0.35"/><circle cx="665.0" cy="298.2" r="0.4" fill="#d4c9a8" opacity="0.35"/><circle cx="482.2" cy="24.6" r="0.4" fill="#d4c9a8" opacity="0.35"/><circle cx="17.9" cy="193.5" r="0.4" fill="#d4c9a8" opacity="0.35"/><circle cx="222.8" cy="77.0" r="0.8" fill="#d4c9a8" opacity="0.35"/><circle cx="408.3" cy="190.5" r="0.4" fill="#d4c9a8" opacity="0.35"/><circle cx="536.1" cy="274.9" r="0.4" fill="#d4c9a8" opacity="0.35"/><circle cx="143.4" cy="160.0" r="0.4" fill="#d4c9a8" opacity="0.35"/><circle cx="521.4" cy="8.9" r="0.4" fill="#d4c9a8" opacity="0.35"/><circle cx="175.7" cy="149.3" r="0.4" fill="#d4c9a8" opacity="0.35"/><circle cx="627.0" cy="6.9" r="0.4" fill="#d4c9a8" opacity="0.35"/><circle cx="540.1" cy="294.2" r="0.4" fill="#d4c9a8" opacity="0.35"/><circle cx="320.8" cy="270.0" r="0.4" fill="#d4c9a8" opacity="0.35"/><circle cx="515.5" cy="297.5" r="0.4" fill="#d4c9a8" opacity="0.35"/><circle cx="527.5" cy="249.5" r="0.4" fill="#d4c9a8" opacity="0.35"/><circle cx="661.1" cy="248.9" r="0.4" fill="#d4c9a8" opacity="0.35"/><circle cx="184.2" cy="41.2" r="0.4" fill="#d4c9a8" opacity="0.35"/><circle cx="142.5" cy="290.3" r="0.4" fill="#d4c9a8" opacity="0.35"/><circle cx="105.1" cy="276.6" r="0.4" fill="#d4c9a8" opacity="0.35"/><circle cx="11.8" cy="120.7" r="0.4" fill="#d4c9a8" opacity="0.35"/><circle cx="696.9" cy="220.7" r="0.8" fill="#d4c9a8" opacity="0.35"/><circle cx="694.2" cy="256.2" r="0.8" fill="#d4c9a8" opacity="0.35"/><circle cx="299.6" cy="171.0" r="0.4" fill="#d4c9a8" opacity="0.35"/><circle cx="95.5" cy="232.7" r="0.4" fill="#d4c9a8" opacity="0.35"/><circle cx="595.1" cy="74.6" r="0.4" fill="#d4c9a8" opacity="0.35"/><circle cx="234.4" cy="15.1" r="0.4" fill="#d4c9a8" opacity="0.35"/><circle cx="370.2" cy="290.3" r="0.8" fill="#d4c9a8" opacity="0.35"/><circle cx="556.2" cy="226.0" r="0.4" fill="#d4c9a8" opacity="0.35"/><circle cx="456.1" cy="231.6" r="0.4" fill="#d4c9a8" opacity="0.35"/><circle cx="229.2" cy="190.5" r="0.8" fill="#d4c9a8" opacity="0.35"/><circle cx="103.9" cy="103.3" r="0.4" fill="#d4c9a8" opacity="0.35"/><circle cx="680.1" cy="101.5" r="0.4" fill="#d4c9a8" opacity="0.35"/><circle cx="544.9" cy="41.1" r="0.4" fill="#d4c9a8" opacity="0.35"/><circle cx="395.2" cy="261.0" r="0.4" fill="#d4c9a8" opacity="0.35"/><circle cx="421.0" cy="48.8" r="0.4" fill="#d4c9a8" opacity="0.35"/><circle cx="707.6" cy="90.4" r="0.4" fill="#d4c9a8" opacity="0.35"/><circle cx="453.6" cy="56.4" r="0.4" fill="#d4c9a8" opacity="0.35"/><circle cx="96.3" cy="127.0" r="0.4" fill="#d4c9a8" opacity="0.35"/><circle cx="260.9" cy="120.4" r="0.4" fill="#d4c9a8" opacity="0.35"/><circle cx="538.5" cy="165.8" r="0.4" fill="#d4c9a8" opacity="0.35"/><circle cx="664.9" cy="56.8" r="0.4" fill="#d4c9a8" opacity="0.35"/><circle cx="331.3" cy="205.7" r="0.4" fill="#d4c9a8" opacity="0.35"/><circle cx="106.3" cy="108.2" r="0.4" fill="#d4c9a8" opacity="0.35"/><circle cx="685.4" cy="198.8" r="0.4" fill="#d4c9a8" opacity="0.35"/><circle cx="294.5" cy="220.0" r="0.8" fill="#d4c9a8" opacity="0.35"/><circle cx="263.4" cy="93.3" r="0.4" fill="#d4c9a8" opacity="0.35"/><circle cx="531.2" cy="272.4" r="0.8" fill="#d4c9a8" opacity="0.35"/><circle cx="49.2" cy="127.3" r="0.8" fill="#d4c9a8" opacity="0.35"/><circle cx="106.2" cy="87.1" r="0.4" fill="#d4c9a8" opacity="0.35"/><circle cx="53.3" cy="116.8" r="0.4" fill="#d4c9a8" opacity="0.35"/><circle cx="357.5" cy="32.6" r="0.4" fill="#d4c9a8" opacity="0.35"/><circle cx="56.4" cy="219.9" r="0.4" fill="#d4c9a8" opacity="0.35"/><circle cx="84.7" cy="62.4" r="0.4" fill="#d4c9a8" opacity="0.35"/><circle cx="215.8" cy="106.3" r="0.4" fill="#d4c9a8" opacity="0.35"/><circle cx="217.1" cy="199.7" r="0.4" fill="#d4c9a8" opacity="0.35"/><circle cx="452.8" cy="24.1" r="0.4" fill="#d4c9a8" opacity="0.35"/><circle cx="603.9" cy="160.4" r="0.4" fill="#d4c9a8" opacity="0.35"/><circle cx="295.1" cy="11.1" r="0.4" fill="#d4c9a8" opacity="0.35"/><circle cx="504.5" cy="50.3" r="0.4" fill="#d4c9a8" opacity="0.35"/><circle cx="51.5" cy="7.5" r="0.4" fill="#d4c9a8" opacity="0.35"/><circle cx="181.1" cy="217.3" r="0.4" fill="#d4c9a8" opacity="0.35"/><circle cx="394.1" cy="77.9" r="0.4" fill="#d4c9a8" opacity="0.35"/><circle cx="714.1" cy="136.1" r="0.4" fill="#d4c9a8" opacity="0.35"/><circle cx="343.4" cy="40.3" r="0.4" fill="#d4c9a8" opacity="0.35"/><circle cx="237.3" cy="195.4" r="0.4" fill="#d4c9a8" opacity="0.35"/><circle cx="288.6" cy="200.9" r="0.8" fill="#d4c9a8" opacity="0.35"/><circle cx="93.9" cy="48.5" r="0.4" fill="#d4c9a8" opacity="0.35"/><circle cx="361.1" cy="214.8" r="0.4" fill="#d4c9a8" opacity="0.35"/><circle cx="132.0" cy="131.7" r="0.4" fill="#d4c9a8" opacity="0.35"/><circle cx="250.2" cy="125.7" r="0.4" fill="#d4c9a8" opacity="0.35"/><circle cx="381.0" cy="291.8" r="0.4" fill="#d4c9a8" opacity="0.35"/><circle cx="380.2" cy="51.3" r="0.4" fill="#d4c9a8" opacity="0.35"/><circle cx="498.4" cy="12.4" r="0.4" fill="#d4c9a8" opacity="0.35"/><circle cx="181.1" cy="274.8" r="0.4" fill="#d4c9a8" opacity="0.35"/><circle cx="444.6" cy="221.9" r="0.4" fill="#d4c9a8" opacity="0.35"/><circle cx="435.8" cy="94.0" r="0.4" fill="#d4c9a8" opacity="0.35"/><circle cx="178.8" cy="175.6" r="0.4" fill="#d4c9a8" opacity="0.35"/><circle cx="327.4" cy="155.1" r="0.4" fill="#d4c9a8" opacity="0.35"/><circle cx="540.3" cy="255.8" r="0.4" fill="#d4c9a8" opacity="0.35"/><circle cx="603.6" cy="14.6" r="0.4" fill="#d4c9a8" opacity="0.35"/><circle cx="427.0" cy="267.0" r="0.4" fill="#d4c9a8" opacity="0.35"/><circle cx="273.5" cy="187.6" r="0.4" fill="#d4c9a8" opacity="0.35"/><circle cx="350.4" cy="207.1" r="0.4" fill="#d4c9a8" opacity="0.35"/><circle cx="460.3" cy="265.7" r="0.4" fill="#d4c9a8" opacity="0.35"/><circle cx="317.5" cy="85.8" r="0.4" fill="#d4c9a8" opacity="0.35"/><circle cx="575.3" cy="102.7" r="0.4" fill="#d4c9a8" opacity="0.35"/><circle cx="123.6" cy="222.0" r="0.4" fill="#d4c9a8" opacity="0.35"/><circle cx="20.0" cy="159.1" r="0.4" fill="#d4c9a8" opacity="0.35"/><circle cx="166.4" cy="118.5" r="0.4" fill="#d4c9a8" opacity="0.35"/><circle cx="253.9" cy="259.2" r="0.4" fill="#d4c9a8" opacity="0.35"/><circle cx="707.2" cy="97.1" r="0.4" fill="#d4c9a8" opacity="0.35"/><circle cx="86.4" cy="73.3" r="0.4" fill="#d4c9a8" opacity="0.35"/><circle cx="75.6" cy="36.1" r="0.4" fill="#d4c9a8" opacity="0.35"/><circle cx="132.8" cy="275.6" r="0.4" fill="#d4c9a8" opacity="0.35"/><circle cx="703.6" cy="28.7" r="0.4" fill="#d4c9a8" opacity="0.35"/><circle cx="428.7" cy="206.6" r="0.8" fill="#d4c9a8" opacity="0.35"/><circle cx="2.0" cy="64.2" r="0.4" fill="#d4c9a8" opacity="0.35"/><circle cx="678.3" cy="274.5" r="0.4" fill="#d4c9a8" opacity="0.35"/><circle cx="706.3" cy="74.4" r="0.4" fill="#d4c9a8" opacity="0.35"/><circle cx="689.2" cy="10.8" r="0.8" fill="#d4c9a8" opacity="0.35"/><circle cx="325.0" cy="218.4" r="0.4" fill="#d4c9a8" opacity="0.35"/><circle cx="210.2" cy="226.7" r="0.4" fill="#d4c9a8" opacity="0.35"/><circle cx="492.3" cy="213.3" r="0.4" fill="#d4c9a8" opacity="0.35"/><circle cx="680.5" cy="112.5" r="0.4" fill="#d4c9a8" opacity="0.35"/><circle cx="381.2" cy="34.2" r="0.4" fill="#d4c9a8" opacity="0.35"/><circle cx="103.4" cy="206.3" r="0.4" fill="#d4c9a8" opacity="0.35"/><circle cx="23.4" cy="163.1" r="0.4" fill="#d4c9a8" opacity="0.35"/><circle cx="569.8" cy="279.2" r="0.4" fill="#d4c9a8" opacity="0.35"/><circle cx="238.0" cy="23.9" r="0.4" fill="#d4c9a8" opacity="0.35"/><circle cx="552.4" cy="268.9" r="0.4" fill="#d4c9a8" opacity="0.35"/><circle cx="292.0" cy="276.7" r="0.4" fill="#d4c9a8" opacity="0.35"/><circle cx="256.0" cy="43.5" r="0.4" fill="#d4c9a8" opacity="0.35"/><circle cx="246.2" cy="163.6" r="0.4" fill="#d4c9a8" opacity="0.35"/><circle cx="203.4" cy="75.8" r="0.4" fill="#d4c9a8" opacity="0.35"/><circle cx="383.1" cy="161.9" r="0.8" fill="#d4c9a8" opacity="0.35"/><circle cx="217.1" cy="25.0" r="0.4" fill="#d4c9a8" opacity="0.35"/><circle cx="164.3" cy="157.7" r="0.4" fill="#d4c9a8" opacity="0.35"/><circle cx="88.6" cy="163.5" r="0.4" fill="#d4c9a8" opacity="0.35"/><circle cx="673.5" cy="109.0" r="0.4" fill="#d4c9a8" opacity="0.35"/><circle cx="425.9" cy="135.9" r="0.4" fill="#d4c9a8" opacity="0.35"/><circle cx="514.4" cy="8.0" r="0.4" fill="#d4c9a8" opacity="0.35"/><circle cx="162.1" cy="83.2" r="0.4" fill="#d4c9a8" opacity="0.35"/><circle cx="76.8" cy="282.9" r="0.4" fill="#d4c9a8" opacity="0.35"/><circle cx="185.8" cy="211.2" r="0.4" fill="#d4c9a8" opacity="0.35"/><circle cx="455.5" cy="166.1" r="0.4" fill="#d4c9a8" opacity="0.35"/><circle cx="527.0" cy="295.2" r="0.4" fill="#d4c9a8" opacity="0.35"/><circle cx="342.4" cy="204.2" r="0.4" fill="#d4c9a8" opacity="0.35"/><circle cx="109.7" cy="117.2" r="0.4" fill="#d4c9a8" opacity="0.35"/><circle cx="15.2" cy="74.2" r="0.4" fill="#d4c9a8" opacity="0.35"/><circle cx="448.0" cy="26.4" r="0.4" fill="#d4c9a8" opacity="0.35"/><circle cx="519.1" cy="125.5" r="0.4" fill="#d4c9a8" opacity="0.35"/><circle cx="561.9" cy="240.2" r="0.4" fill="#d4c9a8" opacity="0.35"/><circle cx="551.4" cy="120.5" r="0.4" fill="#d4c9a8" opacity="0.35"/><circle cx="360.5" cy="62.8" r="0.4" fill="#d4c9a8" opacity="0.35"/><circle cx="291.3" cy="60.3" r="0.4" fill="#d4c9a8" opacity="0.35"/><circle cx="575.3" cy="80.6" r="0.4" fill="#d4c9a8" opacity="0.35"/><circle cx="85.4" cy="147.1" r="0.4" fill="#d4c9a8" opacity="0.35"/><circle cx="437.8" cy="275.1" r="0.4" fill="#d4c9a8" opacity="0.35"/><circle cx="349.0" cy="251.9" r="0.4" fill="#d4c9a8" opacity="0.35"/><circle cx="120.2" cy="238.3" r="0.4" fill="#d4c9a8" opacity="0.35"/><circle cx="697.6" cy="262.6" r="0.4" fill="#d4c9a8" opacity="0.35"/><circle cx="430.4" cy="211.8" r="0.4" fill="#d4c9a8" opacity="0.35"/><circle cx="190.9" cy="90.5" r="0.8" fill="#d4c9a8" opacity="0.35"/><circle cx="329.5" cy="183.4" r="0.4" fill="#d4c9a8" opacity="0.35"/><circle cx="709.0" cy="241.4" r="0.4" fill="#d4c9a8" opacity="0.35"/><circle cx="268.2" cy="298.9" r="0.4" fill="#d4c9a8" opacity="0.35"/><circle cx="669.5" cy="20.9" r="0.4" fill="#d4c9a8" opacity="0.35"/><circle cx="160.4" cy="199.9" r="0.4" fill="#d4c9a8" opacity="0.35"/><circle cx="565.9" cy="72.6" r="0.4" fill="#d4c9a8" opacity="0.35"/><circle cx="45.7" cy="253.1" r="0.4" fill="#d4c9a8" opacity="0.35"/><circle cx="18.4" cy="228.6" r="0.8" fill="#d4c9a8" opacity="0.35"/><circle cx="234.6" cy="25.2" r="0.4" fill="#d4c9a8" opacity="0.35"/><circle cx="53.5" cy="218.8" r="0.4" fill="#d4c9a8" opacity="0.35"/><circle cx="388.4" cy="98.3" r="0.4" fill="#d4c9a8" opacity="0.35"/><circle cx="269.4" cy="144.5" r="0.4" fill="#d4c9a8" opacity="0.35"/><circle cx="425.2" cy="7.5" r="0.4" fill="#d4c9a8" opacity="0.35"/><circle cx="425.0" cy="217.0" r="0.4" fill="#d4c9a8" opacity="0.35"/><circle cx="284.9" cy="265.0" r="0.4" fill="#d4c9a8" opacity="0.35"/><circle cx="489.4" cy="163.9" r="0.4" fill="#d4c9a8" opacity="0.35"/>
    
    <g opacity="0.06">
      <g transform="rotate(22 360 150)">
        <rect x="-100" y="-50" width="40" height="400" fill="#1c2e1f"/><rect x="0" y="-50" width="40" height="400" fill="#1c2e1f"/><rect x="100" y="-50" width="40" height="400" fill="#1c2e1f"/><rect x="200" y="-50" width="40" height="400" fill="#1c2e1f"/><rect x="300" y="-50" width="40" height="400" fill="#1c2e1f"/><rect x="400" y="-50" width="40" height="400" fill="#1c2e1f"/><rect x="500" y="-50" width="40" height="400" fill="#1c2e1f"/><rect x="600" y="-50" width="40" height="400" fill="#1c2e1f"/><rect x="700" y="-50" width="40" height="400" fill="#1c2e1f"/>
      </g>
    </g>
  

    <!-- Double-line top border -->
    <line x1="34" y1="32" x2="686" y2="32" stroke="#1c2e1f" stroke-width="1.2"/>
    <line x1="34" y1="36" x2="686" y2="36" stroke="#1c2e1f" stroke-width="0.5"/>
    <line x1="34" y1="264" x2="686" y2="264" stroke="#1c2e1f" stroke-width="0.5"/>
    <line x1="34" y1="268" x2="686" y2="268" stroke="#1c2e1f" stroke-width="1.2"/>

    <!-- Header label -->
    <text x="46" y="62" font-family="Georgia, 'Times New Roman', serif" font-size="11" letter-spacing="3" fill="#1c2e1f">AXIOM · BASE · ERC-8257</text>

    <!-- Main title -->
    <text x="46" y="124" font-family="Georgia, 'Times New Roman', serif" font-size="46" font-weight="700" fill="#1c2e1f">AXIOM</text>
    <text x="46" y="164" font-family="Georgia, 'Times New Roman', serif" font-size="34" font-style="italic" fill="#345437">tool pass</text>

    <!-- Tagline -->
    <text x="46" y="196" font-family="Georgia, serif" font-size="10" letter-spacing="4" fill="#1c2e1f">ADMIT ONE · BYPASS x402 · LIFETIME</text>

    <!-- Serial -->
    <text x="46" y="248" font-family="Courier, monospace" font-size="11" letter-spacing="2" fill="#1c2e1f">№ 0003 / 1000</text>

    <!-- Sigil(s) — right side always, plus mirrored left side if Twin -->
    
    <g transform="rotate(6 516 226)">
      <circle cx="516" cy="226" r="32" fill="none" stroke="#1c2e1f" stroke-width="1.5"/>
      <circle cx="516" cy="226" r="29.44" fill="none" stroke="#1c2e1f" stroke-width="0.4" stroke-dasharray="2 2"/>
      <polygon points="516.00,201.04 521.44,216.58 537.62,213.52 526.88,226.00 537.62,238.48 521.44,235.42 516.00,250.96 510.56,235.42 494.38,238.48 505.12,226.00 494.38,213.52 510.56,216.58" fill="none" stroke="#1c2e1f" stroke-width="1.1"/>
    </g>
  
    
    <g transform="rotate(6 74 226)">
      <circle cx="74" cy="226" r="32" fill="none" stroke="#1c2e1f" stroke-width="1.5"/>
      <circle cx="74" cy="226" r="29.44" fill="none" stroke="#1c2e1f" stroke-width="0.4" stroke-dasharray="2 2"/>
      <polygon points="74.00,201.04 79.44,216.58 95.62,213.52 84.88,226.00 95.62,238.48 79.44,235.42 74.00,250.96 68.56,235.42 52.38,238.48 63.12,226.00 52.38,213.52 68.56,216.58" fill="none" stroke="#1c2e1f" stroke-width="1.1"/>
    </g>
  

    <!-- Stub background tint -->
    <rect x="576" y="14" width="130" height="272" fill="#d4c9a8" opacity="0.45"/>

    <!-- Foil strip on stub -->
    <rect x="588" y="34" width="106" height="6" fill="url(#foil)"/>

    <!-- Stub rotated text -->
    <g transform="translate(641, 150) rotate(-90)">
      <text text-anchor="middle" font-family="Georgia, serif" font-size="20" font-weight="700" letter-spacing="6" fill="#1c2e1f">AXIOM TOOL PASS</text>
      <text y="22" text-anchor="middle" font-family="Courier, monospace" font-size="9" letter-spacing="3" fill="#1c2e1f">№ 0003 / 1000</text>
    </g>
  </g>

  <!-- Perforation -->
  <circle cx="576" cy="26" r="2" fill="#ece5d0" stroke="#d4c9a8" stroke-width="0.5"/><circle cx="576" cy="38" r="2" fill="#ece5d0" stroke="#d4c9a8" stroke-width="0.5"/><circle cx="576" cy="50" r="2" fill="#ece5d0" stroke="#d4c9a8" stroke-width="0.5"/><circle cx="576" cy="62" r="2" fill="#ece5d0" stroke="#d4c9a8" stroke-width="0.5"/><circle cx="576" cy="74" r="2" fill="#ece5d0" stroke="#d4c9a8" stroke-width="0.5"/><circle cx="576" cy="86" r="2" fill="#ece5d0" stroke="#d4c9a8" stroke-width="0.5"/><circle cx="576" cy="98" r="2" fill="#ece5d0" stroke="#d4c9a8" stroke-width="0.5"/><circle cx="576" cy="110" r="2" fill="#ece5d0" stroke="#d4c9a8" stroke-width="0.5"/><circle cx="576" cy="122" r="2" fill="#ece5d0" stroke="#d4c9a8" stroke-width="0.5"/><circle cx="576" cy="134" r="2" fill="#ece5d0" stroke="#d4c9a8" stroke-width="0.5"/><circle cx="576" cy="146" r="2" fill="#ece5d0" stroke="#d4c9a8" stroke-width="0.5"/><circle cx="576" cy="158" r="2" fill="#ece5d0" stroke="#d4c9a8" stroke-width="0.5"/><circle cx="576" cy="170" r="2" fill="#ece5d0" stroke="#d4c9a8" stroke-width="0.5"/><circle cx="576" cy="182" r="2" fill="#ece5d0" stroke="#d4c9a8" stroke-width="0.5"/><circle cx="576" cy="194" r="2" fill="#ece5d0" stroke="#d4c9a8" stroke-width="0.5"/><circle cx="576" cy="206" r="2" fill="#ece5d0" stroke="#d4c9a8" stroke-width="0.5"/><circle cx="576" cy="218" r="2" fill="#ece5d0" stroke="#d4c9a8" stroke-width="0.5"/><circle cx="576" cy="230" r="2" fill="#ece5d0" stroke="#d4c9a8" stroke-width="0.5"/><circle cx="576" cy="242" r="2" fill="#ece5d0" stroke="#d4c9a8" stroke-width="0.5"/><circle cx="576" cy="254" r="2" fill="#ece5d0" stroke="#d4c9a8" stroke-width="0.5"/><circle cx="576" cy="266" r="2" fill="#ece5d0" stroke="#d4c9a8" stroke-width="0.5"/><circle cx="576" cy="278" r="2" fill="#ece5d0" stroke="#d4c9a8" stroke-width="0.5"/>

  <!-- Outer ticket outline -->
  <rect x="14" y="14" width="692" height="272" rx="6" ry="6" fill="none" stroke="#1c2e1f" stroke-width="1" opacity="0.4"/>
</svg>