<svg xmlns="http://www.w3.org/2000/svg" viewBox="0 0 720 300" width="720" height="300">
  <defs>
    <linearGradient id="foil" x1="0" y1="0" x2="1" y2="1">
      <stop offset="0%" stop-color="#7a93b3" stop-opacity="0.9"/>
      <stop offset="50%" stop-color="#d9dde2" stop-opacity="0.4"/>
      <stop offset="100%" stop-color="#7a93b3" stop-opacity="0.9"/>
    </linearGradient>
    <clipPath id="ticket">
      <rect x="14" y="14" width="692" height="272" rx="6" ry="6"/>
    </clipPath>
  </defs>

  <!-- Outer canvas -->
  <rect width="720" height="300" fill="#1a1a1a"/>

  <!-- Ticket body -->
  <g clip-path="url(#ticket)">
    <rect x="14" y="14" width="692" height="272" fill="#d9dde2"/>
    <circle cx="177.4" cy="288.5" r="0.4" fill="#bcc4cd" opacity="0.35"/><circle cx="624.4" cy="263.6" r="0.4" fill="#bcc4cd" opacity="0.35"/><circle cx="531.5" cy="40.6" r="0.4" fill="#bcc4cd" opacity="0.35"/><circle cx="343.6" cy="17.7" r="0.4" fill="#bcc4cd" opacity="0.35"/><circle cx="150.8" cy="12.1" r="0.4" fill="#bcc4cd" opacity="0.35"/><circle cx="429.7" cy="168.7" r="0.4" fill="#bcc4cd" opacity="0.35"/><circle cx="446.2" cy="166.0" r="0.4" fill="#bcc4cd" opacity="0.35"/><circle cx="87.9" cy="49.8" r="0.4" fill="#bcc4cd" opacity="0.35"/><circle cx="305.2" cy="29.0" r="0.4" fill="#bcc4cd" opacity="0.35"/><circle cx="477.4" cy="221.8" r="0.4" fill="#bcc4cd" opacity="0.35"/><circle cx="642.8" cy="10.5" r="0.8" fill="#bcc4cd" opacity="0.35"/><circle cx="700.2" cy="238.5" r="0.4" fill="#bcc4cd" opacity="0.35"/><circle cx="658.7" cy="245.7" r="0.4" fill="#bcc4cd" opacity="0.35"/><circle cx="413.7" cy="72.5" r="0.4" fill="#bcc4cd" opacity="0.35"/><circle cx="697.8" cy="6.1" r="0.4" fill="#bcc4cd" opacity="0.35"/><circle cx="434.6" cy="277.8" r="0.4" fill="#bcc4cd" opacity="0.35"/><circle cx="643.3" cy="130.5" r="0.4" fill="#bcc4cd" opacity="0.35"/><circle cx="167.6" cy="259.8" r="0.4" fill="#bcc4cd" opacity="0.35"/><circle cx="204.4" cy="82.2" r="0.4" fill="#bcc4cd" opacity="0.35"/><circle cx="459.1" cy="25.7" r="0.4" fill="#bcc4cd" opacity="0.35"/><circle cx="592.0" cy="113.3" r="0.4" fill="#bcc4cd" opacity="0.35"/><circle cx="86.7" cy="241.9" r="0.4" fill="#bcc4cd" opacity="0.35"/><circle cx="500.3" cy="165.1" r="0.4" fill="#bcc4cd" opacity="0.35"/><circle cx="312.8" cy="30.1" r="0.4" fill="#bcc4cd" opacity="0.35"/><circle cx="207.6" cy="58.5" r="0.4" fill="#bcc4cd" opacity="0.35"/><circle cx="201.8" cy="286.6" r="0.4" fill="#bcc4cd" opacity="0.35"/><circle cx="683.6" cy="97.4" r="0.4" fill="#bcc4cd" opacity="0.35"/><circle cx="258.1" cy="187.9" r="0.4" fill="#bcc4cd" opacity="0.35"/><circle cx="556.3" cy="75.5" r="0.4" fill="#bcc4cd" opacity="0.35"/><circle cx="157.5" cy="104.7" r="0.4" fill="#bcc4cd" opacity="0.35"/><circle cx="59.1" cy="211.1" r="0.8" fill="#bcc4cd" opacity="0.35"/><circle cx="363.8" cy="166.4" r="0.4" fill="#bcc4cd" opacity="0.35"/><circle cx="85.5" cy="97.2" r="0.4" fill="#bcc4cd" opacity="0.35"/><circle cx="503.6" cy="51.0" r="0.4" fill="#bcc4cd" opacity="0.35"/><circle cx="202.8" cy="155.0" r="0.4" fill="#bcc4cd" opacity="0.35"/><circle cx="130.5" cy="167.1" r="0.4" fill="#bcc4cd" opacity="0.35"/><circle cx="133.2" cy="135.7" r="0.4" fill="#bcc4cd" opacity="0.35"/><circle cx="391.5" cy="204.6" r="0.4" fill="#bcc4cd" opacity="0.35"/><circle cx="392.9" cy="36.6" r="0.4" fill="#bcc4cd" opacity="0.35"/><circle cx="244.9" cy="125.5" r="0.4" fill="#bcc4cd" opacity="0.35"/><circle cx="53.0" cy="264.8" r="0.4" fill="#bcc4cd" opacity="0.35"/><circle cx="466.4" cy="286.8" r="0.4" fill="#bcc4cd" opacity="0.35"/><circle cx="413.6" cy="16.6" r="0.8" fill="#bcc4cd" opacity="0.35"/><circle cx="626.6" cy="216.9" r="0.4" fill="#bcc4cd" opacity="0.35"/><circle cx="575.3" cy="21.2" r="0.4" fill="#bcc4cd" opacity="0.35"/><circle cx="632.7" cy="41.1" r="0.4" fill="#bcc4cd" opacity="0.35"/><circle cx="333.2" cy="52.9" r="0.4" fill="#bcc4cd" opacity="0.35"/><circle cx="374.8" cy="108.9" r="0.4" fill="#bcc4cd" opacity="0.35"/><circle cx="564.8" cy="110.6" r="0.4" fill="#bcc4cd" opacity="0.35"/><circle cx="259.7" cy="26.7" r="0.8" fill="#bcc4cd" opacity="0.35"/><circle cx="440.0" cy="86.2" r="0.4" fill="#bcc4cd" opacity="0.35"/><circle cx="666.5" cy="258.7" r="0.4" fill="#bcc4cd" opacity="0.35"/><circle cx="596.2" cy="15.3" r="0.4" fill="#bcc4cd" opacity="0.35"/><circle cx="440.1" cy="38.1" r="0.4" fill="#bcc4cd" opacity="0.35"/><circle cx="378.6" cy="206.1" r="0.4" fill="#bcc4cd" opacity="0.35"/><circle cx="16.0" cy="200.8" r="0.4" fill="#bcc4cd" opacity="0.35"/><circle cx="484.9" cy="216.5" r="0.4" fill="#bcc4cd" opacity="0.35"/><circle cx="609.1" cy="149.8" r="0.4" fill="#bcc4cd" opacity="0.35"/><circle cx="509.4" cy="246.4" r="0.4" fill="#bcc4cd" opacity="0.35"/><circle cx="446.2" cy="44.4" r="0.4" fill="#bcc4cd" opacity="0.35"/><circle cx="412.8" cy="102.4" r="0.4" fill="#bcc4cd" opacity="0.35"/><circle cx="560.6" cy="44.7" r="0.4" fill="#bcc4cd" opacity="0.35"/><circle cx="418.5" cy="248.0" r="0.4" fill="#bcc4cd" opacity="0.35"/><circle cx="568.8" cy="51.5" r="0.4" fill="#bcc4cd" opacity="0.35"/><circle cx="703.8" cy="228.8" r="0.4" fill="#bcc4cd" opacity="0.35"/><circle cx="148.8" cy="76.7" r="0.4" fill="#bcc4cd" opacity="0.35"/><circle cx="7.8" cy="251.7" r="0.4" fill="#bcc4cd" opacity="0.35"/><circle cx="94.8" cy="240.8" r="0.4" fill="#bcc4cd" opacity="0.35"/><circle cx="694.4" cy="233.1" r="0.4" fill="#bcc4cd" opacity="0.35"/><circle cx="12.9" cy="138.1" r="0.4" fill="#bcc4cd" opacity="0.35"/><circle cx="131.1" cy="44.4" r="0.4" fill="#bcc4cd" opacity="0.35"/><circle cx="112.6" cy="127.3" r="0.4" fill="#bcc4cd" opacity="0.35"/><circle cx="296.4" cy="261.5" r="0.4" fill="#bcc4cd" opacity="0.35"/><circle cx="327.9" cy="90.5" r="0.4" fill="#bcc4cd" opacity="0.35"/><circle cx="363.5" cy="248.7" r="0.4" fill="#bcc4cd" opacity="0.35"/><circle cx="648.6" cy="296.2" r="0.4" fill="#bcc4cd" opacity="0.35"/><circle cx="219.1" cy="192.4" r="0.4" fill="#bcc4cd" opacity="0.35"/><circle cx="242.8" cy="0.6" r="0.4" fill="#bcc4cd" opacity="0.35"/><circle cx="534.9" cy="230.0" r="0.4" fill="#bcc4cd" opacity="0.35"/><circle cx="464.0" cy="172.9" r="0.4" fill="#bcc4cd" opacity="0.35"/><circle cx="496.2" cy="83.3" r="0.4" fill="#bcc4cd" opacity="0.35"/><circle cx="426.7" cy="203.2" r="0.8" fill="#bcc4cd" opacity="0.35"/><circle cx="473.3" cy="44.0" r="0.4" fill="#bcc4cd" opacity="0.35"/><circle cx="289.3" cy="156.0" r="0.8" fill="#bcc4cd" opacity="0.35"/><circle cx="604.3" cy="153.3" r="0.4" fill="#bcc4cd" opacity="0.35"/><circle cx="420.6" cy="201.8" r="0.4" fill="#bcc4cd" opacity="0.35"/><circle cx="377.4" cy="116.2" r="0.4" fill="#bcc4cd" opacity="0.35"/><circle cx="96.6" cy="19.2" r="0.4" fill="#bcc4cd" opacity="0.35"/><circle cx="677.7" cy="30.0" r="0.4" fill="#bcc4cd" opacity="0.35"/><circle cx="321.5" cy="159.3" r="0.4" fill="#bcc4cd" opacity="0.35"/><circle cx="35.9" cy="276.1" r="0.4" fill="#bcc4cd" opacity="0.35"/><circle cx="251.8" cy="202.6" r="0.4" fill="#bcc4cd" opacity="0.35"/><circle cx="296.7" cy="127.1" r="0.4" fill="#bcc4cd" opacity="0.35"/><circle cx="651.6" cy="90.0" r="0.4" fill="#bcc4cd" opacity="0.35"/><circle cx="396.5" cy="183.2" r="0.4" fill="#bcc4cd" opacity="0.35"/><circle cx="528.7" cy="192.3" r="0.4" fill="#bcc4cd" opacity="0.35"/><circle cx="261.1" cy="223.4" r="0.4" fill="#bcc4cd" opacity="0.35"/><circle cx="481.9" cy="129.0" r="0.8" fill="#bcc4cd" opacity="0.35"/><circle cx="327.3" cy="178.0" r="0.4" fill="#bcc4cd" opacity="0.35"/><circle cx="281.8" cy="52.7" r="0.4" fill="#bcc4cd" opacity="0.35"/><circle cx="419.9" cy="77.0" r="0.4" fill="#bcc4cd" opacity="0.35"/><circle cx="19.4" cy="213.4" r="0.4" fill="#bcc4cd" opacity="0.35"/><circle cx="189.2" cy="44.1" r="0.4" fill="#bcc4cd" opacity="0.35"/><circle cx="472.6" cy="290.0" r="0.4" fill="#bcc4cd" opacity="0.35"/><circle cx="172.9" cy="298.9" r="0.8" fill="#bcc4cd" opacity="0.35"/><circle cx="218.9" cy="31.0" r="0.4" fill="#bcc4cd" opacity="0.35"/><circle cx="382.2" cy="240.2" r="0.4" fill="#bcc4cd" opacity="0.35"/><circle cx="295.9" cy="149.9" r="0.4" fill="#bcc4cd" opacity="0.35"/><circle cx="718.5" cy="281.4" r="0.4" fill="#bcc4cd" opacity="0.35"/><circle cx="532.3" cy="129.8" r="0.4" fill="#bcc4cd" opacity="0.35"/><circle cx="67.8" cy="282.5" r="0.8" fill="#bcc4cd" opacity="0.35"/><circle cx="581.2" cy="18.4" r="0.4" fill="#bcc4cd" opacity="0.35"/><circle cx="130.2" cy="130.6" r="0.4" fill="#bcc4cd" opacity="0.35"/><circle cx="666.8" cy="89.7" r="0.4" fill="#bcc4cd" opacity="0.35"/><circle cx="122.7" cy="115.3" r="0.4" fill="#bcc4cd" opacity="0.35"/><circle cx="396.0" cy="61.1" r="0.4" fill="#bcc4cd" opacity="0.35"/><circle cx="41.8" cy="200.3" r="0.4" fill="#bcc4cd" opacity="0.35"/><circle cx="24.5" cy="3.6" r="0.4" fill="#bcc4cd" opacity="0.35"/><circle cx="359.2" cy="125.7" r="0.8" fill="#bcc4cd" opacity="0.35"/><circle cx="300.1" cy="58.6" r="0.4" fill="#bcc4cd" opacity="0.35"/><circle cx="66.7" cy="96.5" r="0.4" fill="#bcc4cd" opacity="0.35"/><circle cx="21.8" cy="150.6" r="0.4" fill="#bcc4cd" opacity="0.35"/><circle cx="577.3" cy="123.3" r="0.4" fill="#bcc4cd" opacity="0.35"/><circle cx="343.0" cy="139.3" r="0.4" fill="#bcc4cd" opacity="0.35"/><circle cx="44.6" cy="212.3" r="0.4" fill="#bcc4cd" opacity="0.35"/><circle cx="719.1" cy="60.9" r="0.4" fill="#bcc4cd" opacity="0.35"/><circle cx="537.6" cy="28.1" r="0.4" fill="#bcc4cd" opacity="0.35"/><circle cx="292.5" cy="11.7" r="0.4" fill="#bcc4cd" opacity="0.35"/><circle cx="628.8" cy="0.8" r="0.4" fill="#bcc4cd" opacity="0.35"/><circle cx="90.8" cy="24.2" r="0.4" fill="#bcc4cd" opacity="0.35"/><circle cx="71.7" cy="207.6" r="0.4" fill="#bcc4cd" opacity="0.35"/><circle cx="485.8" cy="10.0" r="0.4" fill="#bcc4cd" opacity="0.35"/><circle cx="646.6" cy="214.0" r="0.4" fill="#bcc4cd" opacity="0.35"/><circle cx="358.1" cy="12.4" r="0.4" fill="#bcc4cd" opacity="0.35"/><circle cx="165.2" cy="145.8" r="0.4" fill="#bcc4cd" opacity="0.35"/><circle cx="309.9" cy="1.5" r="0.4" fill="#bcc4cd" opacity="0.35"/><circle cx="118.2" cy="189.9" r="0.4" fill="#bcc4cd" opacity="0.35"/><circle cx="377.3" cy="114.5" r="0.4" fill="#bcc4cd" opacity="0.35"/><circle cx="272.9" cy="254.7" r="0.4" fill="#bcc4cd" opacity="0.35"/><circle cx="683.2" cy="15.8" r="0.4" fill="#bcc4cd" opacity="0.35"/><circle cx="305.7" cy="138.1" r="0.4" fill="#bcc4cd" opacity="0.35"/><circle cx="77.5" cy="292.1" r="0.4" fill="#bcc4cd" opacity="0.35"/><circle cx="599.3" cy="24.7" r="0.4" fill="#bcc4cd" opacity="0.35"/><circle cx="182.6" cy="251.0" r="0.4" fill="#bcc4cd" opacity="0.35"/><circle cx="708.4" cy="50.5" r="0.4" fill="#bcc4cd" opacity="0.35"/><circle cx="469.0" cy="269.3" r="0.4" fill="#bcc4cd" opacity="0.35"/><circle cx="698.0" cy="94.9" r="0.4" fill="#bcc4cd" opacity="0.35"/><circle cx="287.3" cy="272.7" r="0.4" fill="#bcc4cd" opacity="0.35"/><circle cx="695.9" cy="278.8" r="0.4" fill="#bcc4cd" opacity="0.35"/><circle cx="563.6" cy="263.4" r="0.4" fill="#bcc4cd" opacity="0.35"/><circle cx="270.0" cy="55.1" r="0.8" fill="#bcc4cd" opacity="0.35"/><circle cx="242.4" cy="156.1" r="0.4" fill="#bcc4cd" opacity="0.35"/><circle cx="619.2" cy="137.5" r="0.4" fill="#bcc4cd" opacity="0.35"/><circle cx="311.5" cy="84.9" r="0.4" fill="#bcc4cd" opacity="0.35"/><circle cx="308.4" cy="194.5" r="0.8" fill="#bcc4cd" opacity="0.35"/><circle cx="231.6" cy="121.0" r="0.4" fill="#bcc4cd" opacity="0.35"/><circle cx="561.9" cy="138.8" r="0.4" fill="#bcc4cd" opacity="0.35"/><circle cx="138.1" cy="125.3" r="0.4" fill="#bcc4cd" opacity="0.35"/><circle cx="90.5" cy="192.7" r="0.8" fill="#bcc4cd" opacity="0.35"/><circle cx="404.3" cy="117.7" r="0.4" fill="#bcc4cd" opacity="0.35"/><circle cx="713.5" cy="40.0" r="0.4" fill="#bcc4cd" opacity="0.35"/><circle cx="115.9" cy="99.1" r="0.4" fill="#bcc4cd" opacity="0.35"/><circle cx="16.2" cy="67.3" r="0.4" fill="#bcc4cd" opacity="0.35"/><circle cx="429.3" cy="101.4" r="0.4" fill="#bcc4cd" opacity="0.35"/><circle cx="307.0" cy="135.4" r="0.4" fill="#bcc4cd" opacity="0.35"/><circle cx="531.3" cy="245.2" r="0.4" fill="#bcc4cd" opacity="0.35"/><circle cx="130.0" cy="162.3" r="0.4" fill="#bcc4cd" opacity="0.35"/><circle cx="332.1" cy="84.1" r="0.4" fill="#bcc4cd" opacity="0.35"/><circle cx="28.7" cy="234.2" r="0.4" fill="#bcc4cd" opacity="0.35"/><circle cx="19.7" cy="277.7" r="0.8" fill="#bcc4cd" opacity="0.35"/><circle cx="282.0" cy="63.7" r="0.4" fill="#bcc4cd" opacity="0.35"/><circle cx="463.9" cy="77.4" r="0.4" fill="#bcc4cd" opacity="0.35"/><circle cx="352.5" cy="191.5" r="0.8" fill="#bcc4cd" opacity="0.35"/><circle cx="436.2" cy="29.3" r="0.4" fill="#bcc4cd" opacity="0.35"/><circle cx="631.0" cy="270.1" r="0.4" fill="#bcc4cd" opacity="0.35"/><circle cx="566.1" cy="81.3" r="0.8" fill="#bcc4cd" opacity="0.35"/><circle cx="378.2" cy="279.7" r="0.4" fill="#bcc4cd" opacity="0.35"/><circle cx="612.3" cy="77.5" r="0.8" fill="#bcc4cd" opacity="0.35"/><circle cx="507.0" cy="274.5" r="0.8" fill="#bcc4cd" opacity="0.35"/><circle cx="325.5" cy="299.8" r="0.4" fill="#bcc4cd" opacity="0.35"/><circle cx="459.0" cy="127.6" r="0.4" fill="#bcc4cd" opacity="0.35"/><circle cx="452.4" cy="297.4" r="0.4" fill="#bcc4cd" opacity="0.35"/><circle cx="495.5" cy="89.4" r="0.4" fill="#bcc4cd" opacity="0.35"/><circle cx="362.2" cy="109.0" r="0.4" fill="#bcc4cd" opacity="0.35"/><circle cx="569.4" cy="121.1" r="0.4" fill="#bcc4cd" opacity="0.35"/><circle cx="332.9" cy="294.6" r="0.4" fill="#bcc4cd" opacity="0.35"/><circle cx="191.4" cy="135.2" r="0.4" fill="#bcc4cd" opacity="0.35"/><circle cx="219.5" cy="162.6" r="0.4" fill="#bcc4cd" opacity="0.35"/><circle cx="657.0" cy="0.1" r="0.4" fill="#bcc4cd" opacity="0.35"/><circle cx="639.5" cy="68.0" r="0.4" fill="#bcc4cd" opacity="0.35"/><circle cx="234.1" cy="85.5" r="0.4" fill="#bcc4cd" opacity="0.35"/><circle cx="627.6" cy="180.8" r="0.4" fill="#bcc4cd" opacity="0.35"/><circle cx="427.5" cy="180.2" r="0.4" fill="#bcc4cd" opacity="0.35"/><circle cx="319.3" cy="246.4" r="0.4" fill="#bcc4cd" opacity="0.35"/><circle cx="712.6" cy="223.4" r="0.4" fill="#bcc4cd" opacity="0.35"/><circle cx="486.3" cy="40.5" r="0.4" fill="#bcc4cd" opacity="0.35"/><circle cx="552.4" cy="191.7" r="0.4" fill="#bcc4cd" opacity="0.35"/><circle cx="232.2" cy="259.1" r="0.4" fill="#bcc4cd" opacity="0.35"/><circle cx="323.0" cy="80.2" r="0.4" fill="#bcc4cd" opacity="0.35"/><circle cx="238.3" cy="260.4" r="0.4" fill="#bcc4cd" opacity="0.35"/><circle cx="541.1" cy="289.7" r="0.4" fill="#bcc4cd" opacity="0.35"/><circle cx="63.2" cy="258.4" r="0.4" fill="#bcc4cd" opacity="0.35"/><circle cx="312.1" cy="171.8" r="0.4" fill="#bcc4cd" opacity="0.35"/><circle cx="252.6" cy="276.5" r="0.4" fill="#bcc4cd" opacity="0.35"/><circle cx="16.8" cy="203.6" r="0.4" fill="#bcc4cd" opacity="0.35"/><circle cx="145.4" cy="240.5" r="0.4" fill="#bcc4cd" opacity="0.35"/><circle cx="205.0" cy="198.0" r="0.8" fill="#bcc4cd" opacity="0.35"/><circle cx="26.3" cy="148.1" r="0.4" fill="#bcc4cd" opacity="0.35"/><circle cx="407.5" cy="290.6" r="0.4" fill="#bcc4cd" opacity="0.35"/><circle cx="448.8" cy="282.6" r="0.4" fill="#bcc4cd" opacity="0.35"/><circle cx="449.1" cy="264.1" r="0.8" fill="#bcc4cd" opacity="0.35"/><circle cx="341.1" cy="52.9" r="0.4" fill="#bcc4cd" opacity="0.35"/><circle cx="274.5" cy="215.8" r="0.4" fill="#bcc4cd" opacity="0.35"/><circle cx="444.3" cy="90.1" r="0.4" fill="#bcc4cd" opacity="0.35"/><circle cx="378.1" cy="135.6" r="0.4" fill="#bcc4cd" opacity="0.35"/><circle cx="429.5" cy="61.0" r="0.4" fill="#bcc4cd" opacity="0.35"/><circle cx="678.1" cy="147.5" r="0.4" fill="#bcc4cd" opacity="0.35"/><circle cx="230.6" cy="122.0" r="0.4" fill="#bcc4cd" opacity="0.35"/><circle cx="557.4" cy="272.4" r="0.4" fill="#bcc4cd" opacity="0.35"/><circle cx="668.7" cy="144.9" r="0.4" fill="#bcc4cd" opacity="0.35"/>
    
    <g opacity="0.06">
      <g transform="rotate(22 360 150)">
        <rect x="-100" y="-50" width="40" height="400" fill="#142133"/><rect x="0" y="-50" width="40" height="400" fill="#142133"/><rect x="100" y="-50" width="40" height="400" fill="#142133"/><rect x="200" y="-50" width="40" height="400" fill="#142133"/><rect x="300" y="-50" width="40" height="400" fill="#142133"/><rect x="400" y="-50" width="40" height="400" fill="#142133"/><rect x="500" y="-50" width="40" height="400" fill="#142133"/><rect x="600" y="-50" width="40" height="400" fill="#142133"/><rect x="700" y="-50" width="40" height="400" fill="#142133"/>
      </g>
    </g>
  

    <!-- Double-line top border -->
    <line x1="34" y1="32" x2="686" y2="32" stroke="#142133" stroke-width="1.2"/>
    <line x1="34" y1="36" x2="686" y2="36" stroke="#142133" stroke-width="0.5"/>
    <line x1="34" y1="264" x2="686" y2="264" stroke="#142133" stroke-width="0.5"/>
    <line x1="34" y1="268" x2="686" y2="268" stroke="#142133" stroke-width="1.2"/>

    <!-- Header label -->
    <text x="46" y="62" font-family="Georgia, 'Times New Roman', serif" font-size="11" letter-spacing="3" fill="#142133">AXIOM · BASE · ERC-8257</text>

    <!-- Main title -->
    <text x="46" y="124" font-family="Georgia, 'Times New Roman', serif" font-size="46" font-weight="700" fill="#142133">AXIOM</text>
    <text x="46" y="164" font-family="Georgia, 'Times New Roman', serif" font-size="34" font-style="italic" fill="#2a4d7a">tool pass</text>

    <!-- Tagline -->
    <text x="46" y="196" font-family="Georgia, serif" font-size="10" letter-spacing="4" fill="#142133">ADMIT ONE · BYPASS x402 · LIFETIME</text>

    <!-- Serial -->
    <text x="46" y="248" font-family="Courier, monospace" font-size="11" letter-spacing="2" fill="#142133">№ 0001 / 1000</text>

    <!-- Sigil(s) — right side always, plus mirrored left side if Twin -->
    
    <g transform="rotate(65 516 226)">
      <circle cx="516" cy="226" r="32" fill="none" stroke="#142133" stroke-width="1.5"/>
      <circle cx="516" cy="226" r="29.44" fill="none" stroke="#142133" stroke-width="0.4" stroke-dasharray="2 2"/>
      <polyline points="516.00,226.00 516.30,226.04 516.58,226.17 516.83,226.37 517.03,226.64 517.16,226.97 517.21,227.35 517.18,227.75 517.06,228.17 516.84,228.59 516.52,228.98 516.12,229.32 515.62,229.61 515.05,229.81 514.41,229.92 513.73,229.93 513.02,229.81 512.30,229.57 511.60,229.20 510.93,228.70 510.32,228.07 509.79,227.32 509.37,226.46 509.07,225.52 508.91,224.49 508.90,223.42 509.06,222.31 509.40,221.20 509.91,220.12 510.60,219.09 511.47,218.15 512.49,217.31 513.66,216.62 514.96,216.08 516.36,215.73 517.84,215.58 519.36,215.65 520.90,215.95 522.42,216.48 523.89,217.24 525.26,218.23 526.51,219.43 527.60,220.84 528.49,222.42 529.17,224.15 529.60,226.00 529.77,227.93 529.65,229.92 529.25,231.90 528.56,233.85 527.58,235.71 526.31,237.45 524.79,239.03 523.02,240.40 521.04,241.52 518.89,242.37 516.59,242.91 514.20,243.13 511.76,243.01 509.32,242.53 506.93,241.70 504.65,240.53 502.52,239.02 500.60,237.19 498.92,235.08 497.54,232.72 496.49,230.15 495.80,227.41 495.50,224.57 495.60,221.66 496.12,218.76 497.05,215.93 498.40,213.21 500.13,210.67 502.23,208.38 504.67,206.37 507.40,204.70 510.37,203.42 513.54,202.56 516.83,202.14 520.20,202.19 523.56,202.72 526.86,203.73 530.03,205.20 532.99,207.13 535.68,209.49 538.04,212.23 540.02,215.31 541.57,218.67 542.64,222.26" fill="none" stroke="#142133" stroke-width="0.9"/>
    </g>
  
    
    <g transform="rotate(65 74 226)">
      <circle cx="74" cy="226" r="32" fill="none" stroke="#142133" stroke-width="1.5"/>
      <circle cx="74" cy="226" r="29.44" fill="none" stroke="#142133" stroke-width="0.4" stroke-dasharray="2 2"/>
      <polyline points="74.00,226.00 74.30,226.04 74.58,226.17 74.83,226.37 75.03,226.64 75.16,226.97 75.21,227.35 75.18,227.75 75.06,228.17 74.84,228.59 74.52,228.98 74.12,229.32 73.62,229.61 73.05,229.81 72.41,229.92 71.73,229.93 71.02,229.81 70.30,229.57 69.60,229.20 68.93,228.70 68.32,228.07 67.79,227.32 67.37,226.46 67.07,225.52 66.91,224.49 66.90,223.42 67.06,222.31 67.40,221.20 67.91,220.12 68.60,219.09 69.47,218.15 70.49,217.31 71.66,216.62 72.96,216.08 74.36,215.73 75.84,215.58 77.36,215.65 78.90,215.95 80.42,216.48 81.89,217.24 83.26,218.23 84.51,219.43 85.60,220.84 86.49,222.42 87.17,224.15 87.60,226.00 87.77,227.93 87.65,229.92 87.25,231.90 86.56,233.85 85.58,235.71 84.31,237.45 82.79,239.03 81.02,240.40 79.04,241.52 76.89,242.37 74.59,242.91 72.20,243.13 69.76,243.01 67.32,242.53 64.93,241.70 62.65,240.53 60.52,239.02 58.60,237.19 56.92,235.08 55.54,232.72 54.49,230.15 53.80,227.41 53.50,224.57 53.60,221.66 54.12,218.76 55.05,215.93 56.40,213.21 58.13,210.67 60.23,208.38 62.67,206.37 65.40,204.70 68.37,203.42 71.54,202.56 74.83,202.14 78.20,202.19 81.56,202.72 84.86,203.73 88.03,205.20 90.99,207.13 93.68,209.49 96.04,212.23 98.02,215.31 99.57,218.67 100.64,222.26" fill="none" stroke="#142133" stroke-width="0.9"/>
    </g>
  

    <!-- Stub background tint -->
    <rect x="576" y="14" width="130" height="272" fill="#bcc4cd" opacity="0.45"/>

    <!-- Foil strip on stub -->
    <rect x="588" y="34" width="106" height="6" fill="url(#foil)"/>

    <!-- Stub rotated text -->
    <g transform="translate(641, 150) rotate(-90)">
      <text text-anchor="middle" font-family="Georgia, serif" font-size="20" font-weight="700" letter-spacing="6" fill="#142133">AXIOM TOOL PASS</text>
      <text y="22" text-anchor="middle" font-family="Courier, monospace" font-size="9" letter-spacing="3" fill="#142133">№ 0001 / 1000</text>
    </g>
  </g>

  <!-- Perforation -->
  <circle cx="576" cy="26" r="2" fill="#d9dde2" stroke="#bcc4cd" stroke-width="0.5"/><circle cx="576" cy="38" r="2" fill="#d9dde2" stroke="#bcc4cd" stroke-width="0.5"/><circle cx="576" cy="50" r="2" fill="#d9dde2" stroke="#bcc4cd" stroke-width="0.5"/><circle cx="576" cy="62" r="2" fill="#d9dde2" stroke="#bcc4cd" stroke-width="0.5"/><circle cx="576" cy="74" r="2" fill="#d9dde2" stroke="#bcc4cd" stroke-width="0.5"/><circle cx="576" cy="86" r="2" fill="#d9dde2" stroke="#bcc4cd" stroke-width="0.5"/><circle cx="576" cy="98" r="2" fill="#d9dde2" stroke="#bcc4cd" stroke-width="0.5"/><circle cx="576" cy="110" r="2" fill="#d9dde2" stroke="#bcc4cd" stroke-width="0.5"/><circle cx="576" cy="122" r="2" fill="#d9dde2" stroke="#bcc4cd" stroke-width="0.5"/><circle cx="576" cy="134" r="2" fill="#d9dde2" stroke="#bcc4cd" stroke-width="0.5"/><circle cx="576" cy="146" r="2" fill="#d9dde2" stroke="#bcc4cd" stroke-width="0.5"/><circle cx="576" cy="158" r="2" fill="#d9dde2" stroke="#bcc4cd" stroke-width="0.5"/><circle cx="576" cy="170" r="2" fill="#d9dde2" stroke="#bcc4cd" stroke-width="0.5"/><circle cx="576" cy="182" r="2" fill="#d9dde2" stroke="#bcc4cd" stroke-width="0.5"/><circle cx="576" cy="194" r="2" fill="#d9dde2" stroke="#bcc4cd" stroke-width="0.5"/><circle cx="576" cy="206" r="2" fill="#d9dde2" stroke="#bcc4cd" stroke-width="0.5"/><circle cx="576" cy="218" r="2" fill="#d9dde2" stroke="#bcc4cd" stroke-width="0.5"/><circle cx="576" cy="230" r="2" fill="#d9dde2" stroke="#bcc4cd" stroke-width="0.5"/><circle cx="576" cy="242" r="2" fill="#d9dde2" stroke="#bcc4cd" stroke-width="0.5"/><circle cx="576" cy="254" r="2" fill="#d9dde2" stroke="#bcc4cd" stroke-width="0.5"/><circle cx="576" cy="266" r="2" fill="#d9dde2" stroke="#bcc4cd" stroke-width="0.5"/><circle cx="576" cy="278" r="2" fill="#d9dde2" stroke="#bcc4cd" stroke-width="0.5"/>

  <!-- Outer ticket outline -->
  <rect x="14" y="14" width="692" height="272" rx="6" ry="6" fill="none" stroke="#142133" stroke-width="1" opacity="0.4"/>
</svg>